<?xml version="1.0" encoding="utf-8"?>
<!-- Generator: Adobe Illustrator 15.1.0, SVG Export Plug-In . SVG Version: 6.00 Build 0)  -->
<!DOCTYPE svg PUBLIC "-//W3C//DTD SVG 1.1//EN" "http://www.w3.org/Graphics/SVG/1.1/DTD/svg11.dtd">
<svg version="1.1" id="Layer_1" xmlns="http://www.w3.org/2000/svg" xmlns:xlink="http://www.w3.org/1999/xlink" x="0px" y="0px"
	 width="604.924px" height="67.004px" viewBox="0 0 604.924 67.004" enable-background="new 0 0 604.924 67.004"
	 xml:space="preserve">
<path fill="none" stroke="#FFFFFF" stroke-width="3" d="M4.688,26.75h7.731c4.584,0,13.169-2.4,13.169-10.718
	c0,0,0.584-10.503-13.169-10.503c-9.044,0-9.044,0-9.044,0v47.013c0,0,0.958,0,8.96,0c8.001,0,19.254-0.967,19.254-12.563
	c0-11.595-7.334-13.229-19.17-13.229"/>
<g id="Layer_2">
</g>
<line fill="none" stroke="#FFFFFF" stroke-width="3" x1="42.883" y1="53.928" x2="42.883" y2="24.309"/>
<ellipse fill="none" stroke="#FFFFFF" stroke-width="3" cx="66.95" cy="39.118" rx="13.19" ry="13.297"/>
<ellipse fill="none" stroke="#FFFFFF" stroke-width="3" cx="119.531" cy="39.118" rx="13.19" ry="13.297"/>
<ellipse fill="none" stroke="#FFFFFF" stroke-width="3" cx="191.373" cy="39.118" rx="13.19" ry="13.297"/>
<ellipse fill="none" stroke="#FFFFFF" stroke-width="3" cx="156.042" cy="39.118" rx="13.19" ry="13.297"/>
<line fill="none" stroke="#FFFFFF" stroke-width="3" x1="90.768" y1="53.928" x2="90.768" y2="24.309"/>
<line fill="none" stroke="#FFFFFF" stroke-width="3" x1="142.852" y1="53.928" x2="142.852" y2="2"/>
<line fill="none" stroke="#FFFFFF" stroke-width="3" x1="508.979" y1="53.928" x2="508.979" y2="12.335"/>
<ellipse fill="none" stroke="#FFFFFF" stroke-width="3" cx="191.373" cy="39.118" rx="13.19" ry="13.297"/>
<ellipse fill="none" stroke="#FFFFFF" stroke-width="3" cx="426.358" cy="39.118" rx="13.189" ry="13.297"/>
<ellipse fill="none" stroke="#FFFFFF" stroke-width="3" cx="353.916" cy="39.118" rx="13.19" ry="13.297"/>
<line fill="none" stroke="#FFFFFF" stroke-width="3" x1="367.105" y1="53.928" x2="367.105" y2="24.309"/>
<ellipse fill="none" stroke="#FFFFFF" stroke-width="3" cx="482.126" cy="39.118" rx="13.19" ry="13.297"/>
<line fill="none" stroke="#FFFFFF" stroke-width="3" x1="495.316" y1="53.928" x2="495.316" y2="24.309"/>
<line fill="none" stroke="#FFFFFF" stroke-width="3" x1="503.853" y1="25.821" x2="516.98" y2="25.821"/>
<polyline fill="none" stroke="#FFFFFF" stroke-width="3" points="335.521,52.415 320.94,52.415 320.94,4.017 "/>
<path fill="none" stroke="#FFFFFF" stroke-width="3" d="M290.684,28.846c-1-1.008-2.125-3.024-6.626-2.994
	c-2.75,0.019-6.626,1.734-6.626,6.397c0,4.033,3.992,5.13,7.668,6.429c0,0,6.918,2.395,6.918,7.604c0,5.211-4.542,6.135-7.959,6.135
	s-5.918-0.506-8.502-4.285"/>
<g>
	<path fill="#FFFFFF" d="M102.479,28.552c-0.803-0.777-1.49-1.628-3.366-1.628c-2.938,0-4.956,2.967-5.666,4.13
		c-1.346,2.203-1.181,3.038-1.181,4.598l-0.008,18.274h-2.991V24.309h2.991v5.163c1.542-2.741,3.949-4.91,6.887-4.91
		c2.657,0,3.444,0.466,5.148,2.184L102.479,28.552z"/>
</g>
<ellipse fill="#FFFFFF" cx="42.883" cy="17.691" rx="2.201" ry="2.219"/>
<path fill="none" stroke="#FFFFFF" stroke-width="3" d="M89.705,16.873"/>
<path fill="none" stroke="#FFFFFF" stroke-width="3" d="M103.366,28.268"/>
<line fill="none" stroke="#FFFFFF" stroke-width="3" x1="234.125" y1="53.928" x2="234.125" y2="24.309"/>
<ellipse fill="#FFFFFF" cx="234.125" cy="17.691" rx="2.201" ry="2.219"/>
<path fill="#FFFFFF" d="M258.985,50.902c-6.445,0-11.689-5.286-11.689-11.784c0-6.498,5.244-11.784,11.689-11.784
	c3.521,0,6.674,1.583,8.819,4.073v-4.104c-2.459-1.871-5.508-2.994-8.819-2.994c-8.1,0-14.69,6.644-14.69,14.811
	c0,8.164,6.59,14.81,14.69,14.81c3.312,0,6.36-1.123,8.819-2.994v-4.104C265.659,49.319,262.505,50.902,258.985,50.902z"/>
<line fill="none" x1="267.804" y1="27.303" x2="265.804" y2="33.257"/>
<ellipse fill="none" stroke="#FFFFFF" stroke-width="3" cx="391.021" cy="39.118" rx="13.189" ry="13.297"/>
<line fill="none" stroke="#FFFFFF" stroke-width="3" x1="377.831" y1="53.928" x2="377.831" y2="2"/>
<ellipse fill="none" stroke="#FFFFFF" stroke-width="3" cx="533.289" cy="39.118" rx="13.189" ry="13.297"/>
<g>
	<path fill="#FFFFFF" d="M461.809,28.552c-0.802-0.777-1.488-1.628-3.363-1.628c-2.938,0-4.955,2.967-5.667,4.13
		c-1.347,2.203-1.181,3.038-1.181,4.598l-0.009,18.274h-2.99V24.309h2.99v5.163c1.542-2.741,3.949-4.91,6.888-4.91
		c2.656,0,3.442,0.466,5.147,2.184L461.809,28.552z"/>
</g>
<path fill="none" stroke="#FFFFFF" stroke-width="3" d="M462.697,28.268"/>
<line fill="none" stroke="#FFFFFF" stroke-width="3" x1="217.294" y1="53.928" x2="217.294" y2="12.335"/>
<line fill="none" stroke="#FFFFFF" stroke-width="3" x1="212.168" y1="25.821" x2="225.295" y2="25.821"/>
<g>
	<path fill="#FFFFFF" d="M568.831,28.553c-0.803-0.778-1.491-1.629-3.366-1.629c-2.938,0-4.955,2.966-5.665,4.13
		c-1.346,2.203-1.181,3.038-1.181,4.599l-0.009,18.275h-2.991V24.309h2.991v5.163c1.541-2.741,3.947-4.91,6.887-4.91
		c2.657,0,3.443,0.466,5.147,2.184L568.831,28.553z"/>
</g>
<polygon fill="#FFFFFF" points="599.558,24.129 588.799,47.1 577.819,24.129 574.493,24.129 587.153,50.614 579.476,67.004 
	582.79,67.004 602.871,24.129 "/>
</svg>
