<?xml version="1.0" encoding="utf-8"?>
<!-- Generator: Adobe Illustrator 15.1.0, SVG Export Plug-In . SVG Version: 6.00 Build 0)  -->
<!DOCTYPE svg PUBLIC "-//W3C//DTD SVG 1.1//EN" "http://www.w3.org/Graphics/SVG/1.1/DTD/svg11.dtd">
<svg version="1.1" id="Layer_1" xmlns="http://www.w3.org/2000/svg" xmlns:xlink="http://www.w3.org/1999/xlink" x="0px" y="0px"
	 width="173.979px" height="79.99px" viewBox="0 0 173.979 79.99" enable-background="new 0 0 173.979 79.99" xml:space="preserve">
<path fill="none" stroke="#FFFFFF" stroke-width="1.7693" d="M2.784,14.712h4.56c2.704,0,7.766-1.415,7.766-6.32
	c0,0,0.345-6.195-7.766-6.195c-5.333,0-5.333,0-5.333,0v27.726c0,0,0.564,0,5.284,0c4.718,0,11.354-0.569,11.354-7.408
	c0-6.838-4.325-7.802-11.305-7.802"/>
<line fill="none" stroke="#FFFFFF" stroke-width="1.7693" x1="25.31" y1="30.741" x2="25.31" y2="13.272"/>
<ellipse fill="none" stroke="#FFFFFF" stroke-width="1.7693" cx="39.503" cy="22.006" rx="7.778" ry="7.842"/>
<ellipse fill="none" stroke="#FFFFFF" stroke-width="1.7693" cx="70.513" cy="22.006" rx="7.779" ry="7.842"/>
<ellipse fill="none" stroke="#FFFFFF" stroke-width="1.7693" cx="112.882" cy="22.006" rx="7.779" ry="7.842"/>
<ellipse fill="none" stroke="#FFFFFF" stroke-width="1.7693" cx="92.045" cy="22.006" rx="7.779" ry="7.842"/>
<line fill="none" stroke="#FFFFFF" stroke-width="1.7693" x1="53.55" y1="30.741" x2="53.55" y2="13.272"/>
<line fill="none" stroke="#FFFFFF" stroke-width="1.7693" x1="84.267" y1="30.741" x2="84.267" y2="0.116"/>
<line fill="none" stroke="#FFFFFF" stroke-width="1.7693" x1="113.024" y1="72.279" x2="113.024" y2="47.75"/>
<ellipse fill="none" stroke="#FFFFFF" stroke-width="1.7693" cx="112.882" cy="22.006" rx="7.779" ry="7.842"/>
<ellipse fill="none" stroke="#FFFFFF" stroke-width="1.7693" cx="64.299" cy="63.544" rx="7.779" ry="7.842"/>
<ellipse fill="none" stroke="#FFFFFF" stroke-width="1.7693" cx="21.578" cy="63.544" rx="7.779" ry="7.842"/>
<line fill="none" stroke="#FFFFFF" stroke-width="1.7693" x1="29.355" y1="72.279" x2="29.355" y2="54.811"/>
<ellipse fill="none" stroke="#FFFFFF" stroke-width="1.7693" cx="97.19" cy="63.544" rx="7.779" ry="7.842"/>
<line fill="none" stroke="#FFFFFF" stroke-width="1.7693" x1="104.97" y1="72.279" x2="104.97" y2="54.811"/>
<line fill="none" stroke="#FFFFFF" stroke-width="1.7693" x1="110.003" y1="55.702" x2="117.745" y2="55.702"/>
<polyline fill="none" stroke="#FFFFFF" stroke-width="1.7693" points="10.729,71.387 2.129,71.387 2.129,42.844 "/>
<path fill="none" stroke="#FFFFFF" stroke-width="1.7693" d="M171.45,15.948c-0.589-0.595-1.252-1.783-3.907-1.766
	c-1.623,0.012-3.907,1.023-3.907,3.773c0,2.379,2.354,3.026,4.521,3.792c0,0,4.082,1.412,4.082,4.485
	c0,3.072-2.679,3.617-4.695,3.617c-2.014,0-3.488-0.297-5.013-2.526"/>
<g>
	<path fill="#FFFFFF" d="M60.457,15.775c-0.474-0.458-0.879-0.96-1.986-0.96c-1.732,0-2.923,1.75-3.341,2.435
		c-0.794,1.3-0.697,1.792-0.697,2.712l-0.004,10.777h-1.764V13.272h1.764v3.045c0.91-1.617,2.329-2.895,4.062-2.895
		c1.566,0,2.03,0.274,3.036,1.288L60.457,15.775z"/>
</g>
<ellipse fill="#FFFFFF" cx="25.31" cy="9.37" rx="1.298" ry="1.309"/>
<path fill="none" stroke="#FFFFFF" stroke-width="1.7693" d="M52.923,8.887"/>
<path fill="none" stroke="#FFFFFF" stroke-width="1.7693" d="M60.98,15.607"/>
<line fill="none" stroke="#FFFFFF" stroke-width="1.7693" x1="138.095" y1="30.741" x2="138.095" y2="13.272"/>
<ellipse fill="#FFFFFF" cx="138.095" cy="9.37" rx="1.298" ry="1.309"/>
<path fill="#FFFFFF" d="M152.756,28.957c-3.8,0-6.893-3.118-6.893-6.95s3.093-6.95,6.893-6.95c2.077,0,3.937,0.934,5.202,2.402
	v-2.421c-1.451-1.102-3.249-1.765-5.202-1.765c-4.776,0-8.663,3.919-8.663,8.735c0,4.814,3.887,8.734,8.663,8.734
	c1.954,0,3.751-0.663,5.202-1.766v-2.42C156.692,28.022,154.833,28.957,152.756,28.957z"/>
<line fill="none" x1="157.958" y1="15.038" x2="156.778" y2="18.55"/>
<ellipse fill="none" stroke="#FFFFFF" stroke-width="1.7693" cx="43.459" cy="63.544" rx="7.779" ry="7.842"/>
<line fill="none" stroke="#FFFFFF" stroke-width="1.7693" x1="35.68" y1="72.279" x2="35.68" y2="41.654"/>
<ellipse fill="none" stroke="#FFFFFF" stroke-width="1.7693" cx="127.362" cy="63.544" rx="7.779" ry="7.842"/>
<g>
	<path fill="#FFFFFF" d="M85.207,57.313c-0.473-0.457-0.878-0.959-1.983-0.959c-1.733,0-2.923,1.749-3.342,2.435
		c-0.795,1.3-0.695,1.792-0.695,2.712L79.18,72.277h-1.765V54.811h1.765v3.045c0.909-1.617,2.328-2.895,4.062-2.895
		c1.566,0,2.03,0.273,3.037,1.287L85.207,57.313z"/>
</g>
<path fill="none" stroke="#FFFFFF" stroke-width="1.7693" d="M85.731,57.145"/>
<line fill="none" stroke="#FFFFFF" stroke-width="1.7693" x1="128.169" y1="30.741" x2="128.169" y2="6.211"/>
<line fill="none" stroke="#FFFFFF" stroke-width="1.7693" x1="125.146" y1="14.164" x2="132.888" y2="14.164"/>
<g>
	<path fill="#FFFFFF" d="M148.323,57.313c-0.473-0.457-0.879-0.959-1.984-0.959c-1.732,0-2.922,1.749-3.342,2.435
		c-0.793,1.3-0.695,1.792-0.695,2.713l-0.006,10.778h-1.764V54.811h1.764v3.045c0.91-1.617,2.328-2.895,4.063-2.895
		c1.566,0,2.029,0.273,3.035,1.287L148.323,57.313z"/>
</g>
<polygon fill="#FFFFFF" points="166.446,54.704 160.101,68.251 153.624,54.704 151.663,54.704 159.13,70.324 154.601,79.99 
	156.558,79.99 168.399,54.704 "/>
</svg>
