<?xml version="1.0" encoding="utf-8"?>
<!-- Generator: Adobe Illustrator 15.1.0, SVG Export Plug-In . SVG Version: 6.00 Build 0)  -->
<!DOCTYPE svg PUBLIC "-//W3C//DTD SVG 1.1//EN" "http://www.w3.org/Graphics/SVG/1.1/DTD/svg11.dtd">
<svg version="1.1" id="Layer_1" xmlns="http://www.w3.org/2000/svg" xmlns:xlink="http://www.w3.org/1999/xlink" x="0px" y="0px"
	 width="58.992px" height="99.987px" viewBox="0 0 58.992 99.987" enable-background="new 0 0 58.992 99.987" xml:space="preserve">
<rect x="0.194" fill="#3DB3EF" width="58.992" height="99.987"/>
<g>
	<path fill="#FFFFFF" d="M1.767,68.504l13.726-0.005V31.242c1.325-10.489,21.967-14.531,21.415,4.26h0.553
		c5.52-7.648,11.479-2.076,12.694,0.11h0.44c0.773-15.188-9.116-26.215-23.842-26.879C12.182,8.079,2.357,20.424,2.025,30.477
		C1.694,40.529,1.767,68.504,1.767,68.504z"/>
	<g>
		<path fill="#FFFFFF" d="M43.598,44.79c3.255,0,5.896-2.563,5.896-5.726c0-3.162-2.641-5.725-5.896-5.725
			c-3.257,0-5.896,2.563-5.896,5.725C37.701,42.227,40.341,44.79,43.598,44.79z"/>
		<path fill="#FFFFFF" d="M43.598,39.064"/>
	</g>
	<path fill="#FFFFFF" d="M36.687,68.499h13.689V51.563c4.414-2.294,6.182-7.21,6.953-9.614h-7.396
		c-3.863,7.866-12.032,3.386-12.915-0.11h-6.954c0.883,5.353,4.415,8.413,6.732,9.724L36.687,68.499z"/>
	<path fill="#FFFFFF" d="M18.115,59.977h4.167c0.525,0.22,0.442,0.957,0.056,1.202h-1.435v6.692
		c-0.331,0.52-1.076,0.383-1.297,0.055v-6.72h-1.518C17.562,60.797,17.756,60.059,18.115,59.977z"/>
	<path fill="#FFFFFF" d="M23.523,60.141v7.703c0.193,0.273,0.888,0.513,1.269,0.027v-3.359h3.367v3.277
		c0.399,0.337,0.936,0.354,1.159,0v-7.593c-0.192-0.247-0.91-0.328-1.186,0v3.031h-3.284v-3.059
		C24.489,59.813,23.661,59.867,23.523,60.141z"/>
	<path fill="#FFFFFF" d="M30.809,60.715v6.638c0.222,0.628,0.304,0.738,0.801,0.901h2.897c0.193-0.383,0.166-1.065-0.082-1.203
		h-2.016c-0.192-0.163-0.248-0.245-0.275-0.354v-1.722c0.027-0.136,0.083-0.164,0.221-0.191h1.877
		c0.359-0.164,0.248-0.929,0.055-1.093s-0.083-0.054-0.083-0.054h-1.82c-0.194-0.164-0.304-0.327-0.304-0.491
		c-0.028-0.084,0-1.503,0-1.503c0.054-0.164,0.164-0.302,0.304-0.328h1.903c0.44-0.109,0.44-0.737,0.138-1.093h-2.842
		C31.223,60.305,30.975,60.277,30.809,60.715z"/>
	<path fill="#FFFFFF" d="M2.577,70.711v7.156c0.359,0.355,1.187,0.165,1.27,0.028v-6.42c0.166-0.354,0.304-0.189,0.414-0.189
		c1.417-0.256,2.849,2.081-0.194,2.403c-0.193,0.191-0.331,0.792,0.083,1.038h1.297c0.304,0.136,0.386,0.218,0.469,0.52v2.594
		c0.22,0.327,1.021,0.273,1.076,0.11v-2.924c0.027-0.438-0.083-0.683-0.496-0.956c-0.46-0.302-0.028-0.246,0.054-0.355
		c0.498-0.463,1.104-2.867-1.379-3.659c-0.083-0.055-1.738,0-1.738,0C2.936,70.057,2.577,70.711,2.577,70.711z"/>
	<path fill="#FFFFFF" d="M12.084,69.938c-2.36,0-4.273,1.894-4.273,4.229s1.914,4.23,4.273,4.23s4.273-1.895,4.273-4.23
		S14.444,69.938,12.084,69.938z M12.112,77.044c-1.605,0-2.908-1.287-2.908-2.877s1.302-2.878,2.908-2.878
		c1.606,0,2.907,1.288,2.907,2.878C15.019,75.757,13.718,77.044,12.112,77.044z"/>
	<path fill="#FFFFFF" d="M21.013,73.771c-0.636-0.056-0.139-0.328,0-0.355c1.131-1.011,0.138-2.813-0.994-3.142h-2.291
		c-0.414,0.081-0.58,0.547-0.58,0.574v6.773c0.332,0.766,0.276,0.492,0.635,0.629h2.429C21.729,77.649,23.247,75.438,21.013,73.771z
		 M18.445,71.805c0.055-0.355,0.11-0.355,0.994-0.3c0.883,0.053,1.049,1.119,0.359,1.557c-0.689,0.436-1.214,0.135-1.353-0.165
		V71.805L18.445,71.805z M19.881,77.049h-1.049c-0.193-0.082-0.11,0.054-0.358-0.273v-1.885c0-0.163,0.082-0.219,0.248-0.273h1.049
		C20.764,74.617,21.288,76.53,19.881,77.049z"/>
	<path fill="#FFFFFF" d="M26.766,69.965c-2.361,0-4.273,1.894-4.273,4.229s1.913,4.23,4.273,4.23c2.36,0,4.274-1.895,4.274-4.23
		S29.126,69.965,26.766,69.965z M26.793,77.071c-1.605,0-2.907-1.288-2.907-2.877s1.302-2.878,2.907-2.878s2.908,1.289,2.908,2.878
		S28.398,77.071,26.793,77.071z"/>
	<path fill="#FFFFFF" d="M31.141,70.22h4.166c0.525,0.219,0.442,0.956,0.057,1.202h-1.436v6.692
		c-0.332,0.519-1.076,0.382-1.297,0.054v-6.719h-1.519C30.588,71.04,30.782,70.302,31.141,70.22z"/>
	<path fill="#FFFFFF" d="M36.991,70.493v7.621c0.248,0.218,1.159,0.218,1.324,0V70.52C37.957,70.165,37.377,70.083,36.991,70.493z"
		/>
	<path fill="#FFFFFF" d="M44.193,70.246c-5.685-1.092-7.313,8.278,0,8.032c0.304-0.191,0.192-0.875,0-0.983
		c-4.056,0.301-5.409-5.873-0.11-5.846C44.58,71.148,44.358,70.302,44.193,70.246z"/>
	<path fill="#FFFFFF" d="M45.38,76.775c-0.193,0.082-0.249,0.191-0.193,0.355v0.765c0.055,0.164,0.276,0.301,0.276,0.301
		c1.462,0.547,3.357,0.051,4.001-0.464c0.58-0.464,1.463-2.842-0.524-3.634c-1.47-0.586-2.315-0.521-2.512-1.147
		c-0.33-1.064,0.249-1.665,0.994-1.693c0.745-0.027,1.381,0.11,1.683,0.218c0.304,0.11,0.277,0.057,0.359-0.054l0.028-0.792
		c-0.028-0.191-0.084-0.164-0.084-0.164c-1.435-0.601-3.272-0.29-3.974,0.82c-0.69,1.092-0.413,3.168,1.738,3.551
		c2.264,0.026,2.485,2.34,0.194,2.432C46.898,77.103,46.401,77.567,45.38,76.775z"/>
	<path fill="#FFFFFF" d="M46.484,80.653v6.639c0.221,0.629,0.303,0.737,0.8,0.901h2.897c0.194-0.383,0.166-1.065-0.082-1.202h-2.015
		c-0.193-0.164-0.249-0.246-0.276-0.354v-1.721c0.027-0.137,0.083-0.164,0.221-0.192h1.878c0.357-0.164,0.247-0.929,0.055-1.093
		c-0.194-0.163-0.083-0.054-0.083-0.054h-1.822c-0.193-0.163-0.304-0.328-0.304-0.492c-0.027-0.082,0-1.502,0-1.502
		c0.056-0.163,0.167-0.301,0.304-0.328h1.905c0.441-0.108,0.441-0.737,0.138-1.093h-2.843
		C46.898,80.245,46.649,80.217,46.484,80.653z"/>
	<path fill="#FFFFFF" d="M41.103,80.217h4.167c0.524,0.219,0.442,0.956,0.056,1.203H43.89v6.69c-0.332,0.52-1.076,0.384-1.297,0.057
		v-6.721h-1.519C40.552,81.037,40.744,80.299,41.103,80.217z"/>
	<path fill="#FFFFFF" d="M27.884,80.162h4.167c0.524,0.22,0.442,0.956,0.055,1.202h-1.435v6.693
		c-0.331,0.519-1.076,0.381-1.297,0.054v-6.719h-1.518C27.332,80.982,27.525,80.245,27.884,80.162z"/>
	<path fill="#FFFFFF" d="M24.6,80.326v7.621c0.249,0.22,1.159,0.22,1.325,0v-7.594C25.566,79.999,24.986,79.917,24.6,80.326z"/>
	<path fill="#FFFFFF" d="M33.68,80.382v5.518c0.579,2.702,5.076,3.988,6.126,0.109v-5.545c-0.055-0.273-0.304-0.355-0.304-0.355
		h-0.69c-0.192,0.082-0.22,0.137-0.247,0.245v5.49c-0.167,1.203-2.622,2.323-3.561-0.027l-0.056-5.49
		c-0.11-0.191-0.166-0.191-0.248-0.218h-0.524C33.955,80.135,33.817,80.081,33.68,80.382z"/>
	<path fill="#FFFFFF" d="M18.695,80.135h4.167c0.524,0.219,0.441,0.956,0.055,1.202h-1.435v6.692
		c-0.331,0.519-1.077,0.383-1.297,0.054v-6.719h-1.518C18.142,80.955,18.334,80.217,18.695,80.135z"/>
	<path fill="#FFFFFF" d="M13.01,86.581c-0.194,0.083-0.249,0.192-0.194,0.356v0.765c0.055,0.164,0.277,0.299,0.277,0.299
		c1.463,0.547,3.358,0.052,4-0.464c0.58-0.464,1.463-2.84-0.523-3.632c-1.469-0.586-2.317-0.521-2.511-1.147
		c-0.331-1.065,0.248-1.667,0.994-1.693c0.745-0.027,1.379,0.11,1.683,0.218c0.304,0.11,0.276,0.055,0.358-0.054l0.028-0.793
		c-0.028-0.19-0.083-0.163-0.083-0.163c-1.436-0.601-3.273-0.291-3.974,0.818c-0.689,1.094-0.415,3.169,1.739,3.552
		c2.263,0.027,2.485,2.34,0.193,2.431C14.527,86.909,14.03,87.374,13.01,86.581z"/>
	<path fill="#FFFFFF" d="M2.522,80.272v7.621c0.25,0.217,1.159,0.217,1.325,0v-7.595C3.488,79.944,2.909,79.861,2.522,80.272z"/>
	<path fill="#FFFFFF" d="M5.641,87.894v-7.348c0.193-0.465,0.828-0.902,1.353-0.273l3.256,5.654
		c0.138,0.082,0.166,0.082,0.193-0.027v-5.438c0.138-0.436,0.11-0.271,0.221-0.3h0.69c0.138,0.083,0.275,0.164,0.275,0.246v7.157
		c-0.166,0.601-0.799,1.064-1.435,0.382l-3.146-5.436c-0.139-0.11-0.248-0.245-0.304-0.027v5.353
		c-0.055,0.164-0.194,0.246-0.194,0.246H5.889C5.723,88.057,5.696,87.975,5.641,87.894z"/>
</g>
</svg>
