<?xml version="1.0" encoding="UTF-8" standalone="no"?>
<svg
   sodipodi:docname="Biorobotics-Logo-white-v202108.svg"
   inkscape:version="1.3 (1:1.3+202307231459+0e150ed6c4)"
   id="svg5"
   version="1.1"
   viewBox="0 0 69.156601 55.937281"
   height="55.937279mm"
   width="69.156601mm"
   xmlns:inkscape="http://www.inkscape.org/namespaces/inkscape"
   xmlns:sodipodi="http://sodipodi.sourceforge.net/DTD/sodipodi-0.dtd"
   xmlns:xlink="http://www.w3.org/1999/xlink"
   xmlns="http://www.w3.org/2000/svg"
   xmlns:svg="http://www.w3.org/2000/svg"
   xmlns:rdf="http://www.w3.org/1999/02/22-rdf-syntax-ns#"
   xmlns:cc="http://creativecommons.org/ns#"
   xmlns:dc="http://purl.org/dc/elements/1.1/">
  <metadata
     id="metadata2075">
    <rdf:RDF>
      <cc:Work
         rdf:about="">
        <dc:format>image/svg+xml</dc:format>
        <dc:type
           rdf:resource="http://purl.org/dc/dcmitype/StillImage" />
      </cc:Work>
    </rdf:RDF>
  </metadata>
  <sodipodi:namedview
     inkscape:document-rotation="0"
     inkscape:current-layer="g550"
     inkscape:window-maximized="1"
     inkscape:window-y="27"
     inkscape:window-x="70"
     inkscape:window-height="1016"
     inkscape:window-width="1850"
     inkscape:cy="111.15284"
     inkscape:cx="231.85788"
     inkscape:zoom="2.303135"
     showgrid="false"
     inkscape:document-units="mm"
     inkscape:pagecheckerboard="0"
     inkscape:pageopacity="0.0"
     inkscape:pageshadow="2"
     borderopacity="1.0"
     bordercolor="#666666"
     pagecolor="#696969"
     id="namedview7"
     inkscape:showpageshadow="2"
     inkscape:deskcolor="#d1d1d1">
    <inkscape:grid
       id="grid1"
       units="px"
       originx="-0.62462628"
       originy="-15.949926"
       spacingx="0.26458332"
       spacingy="0.26458334"
       empcolor="#0099e5"
       empopacity="0.30196078"
       color="#0099e5"
       opacity="0.14901961"
       empspacing="5"
       dotted="false"
       gridanglex="30"
       gridanglez="30"
       visible="false" />
  </sodipodi:namedview>
  <defs
     id="defs2">
    <linearGradient
       inkscape:swatch="solid"
       id="linearGradient8811">
      <stop
         id="stop8809"
         offset="0"
         style="stop-color:#f97a7a;stop-opacity:1;" />
    </linearGradient>
    <rect
       height="36.700001"
       width="414.60001"
       y="687"
       x="306"
       id="XMLID_456_" />
    <rect
       height="36.700001"
       width="414.60001"
       y="687"
       x="306"
       id="XMLID_424_" />
    <rect
       height="23.6"
       width="266.39999"
       y="270"
       x="23.1"
       id="XMLID_495_" />
    <rect
       height="23.6"
       width="266.39999"
       y="270"
       x="23.1"
       id="XMLID_532_" />
    <clipPath
       id="XMLID_584_-8">
      <use
         height="100%"
         width="100%"
         y="0"
         x="0"
         id="use318-5"
         overflow="visible"
         xlink:href="#XMLID_495_" />
    </clipPath>
    <clipPath
       id="clipPath902">
      <use
         height="100%"
         width="100%"
         y="0"
         x="0"
         id="use900"
         overflow="visible"
         xlink:href="#XMLID_495_" />
    </clipPath>
    <clipPath
       id="XMLID_585_-5">
      <use
         height="100%"
         width="100%"
         y="0"
         x="0"
         id="use348-0"
         overflow="visible"
         xlink:href="#XMLID_532_" />
    </clipPath>
    <clipPath
       id="clipPath908">
      <use
         height="100%"
         width="100%"
         y="0"
         x="0"
         id="use906"
         overflow="visible"
         xlink:href="#XMLID_532_" />
    </clipPath>
    <rect
       height="23.6"
       width="266.39999"
       y="270"
       x="23.1"
       id="rect493-9" />
    <rect
       height="23.6"
       width="266.39999"
       y="270"
       x="23.1"
       id="rect522-2" />
    <clipPath
       id="XMLID_584_-8-2">
      <use
         height="100%"
         width="100%"
         y="0"
         x="0"
         id="use318-5-3"
         overflow="visible"
         xlink:href="#XMLID_495_" />
    </clipPath>
    <clipPath
       id="clipPath2753">
      <use
         height="100%"
         width="100%"
         y="0"
         x="0"
         id="use2751"
         overflow="visible"
         xlink:href="#XMLID_495_" />
    </clipPath>
    <clipPath
       id="XMLID_585_-5-1">
      <use
         height="100%"
         width="100%"
         y="0"
         x="0"
         id="use348-0-3"
         overflow="visible"
         xlink:href="#XMLID_532_" />
    </clipPath>
    <clipPath
       id="clipPath2759">
      <use
         height="100%"
         width="100%"
         y="0"
         x="0"
         id="use2757"
         overflow="visible"
         xlink:href="#XMLID_532_" />
    </clipPath>
    <rect
       height="23.6"
       width="266.39999"
       y="270"
       x="23.1"
       id="rect1105-5" />
    <rect
       height="23.6"
       width="266.39999"
       y="270"
       x="23.1"
       id="rect1134-3" />
    <clipPath
       id="XMLID_584_-2">
      <use
         height="100%"
         width="100%"
         y="0"
         x="0"
         id="use318-0"
         overflow="visible"
         xlink:href="#XMLID_495_" />
    </clipPath>
    <clipPath
       id="clipPath3586">
      <use
         height="100%"
         width="100%"
         y="0"
         x="0"
         id="use3584"
         overflow="visible"
         xlink:href="#XMLID_495_" />
    </clipPath>
    <clipPath
       id="XMLID_585_-0">
      <use
         height="100%"
         width="100%"
         y="0"
         x="0"
         id="use348-7"
         overflow="visible"
         xlink:href="#XMLID_532_" />
    </clipPath>
    <clipPath
       id="clipPath3592">
      <use
         height="100%"
         width="100%"
         y="0"
         x="0"
         id="use3590"
         overflow="visible"
         xlink:href="#XMLID_532_" />
    </clipPath>
    <rect
       height="23.6"
       width="266.39999"
       y="270"
       x="23.1"
       id="rect493-7" />
    <rect
       height="23.6"
       width="266.39999"
       y="270"
       x="23.1"
       id="rect522-7" />
    <clipPath
       id="XMLID_584_-85">
      <use
         height="100%"
         width="100%"
         y="0"
         x="0"
         id="use318-06"
         overflow="visible"
         xlink:href="#XMLID_495_" />
    </clipPath>
    <clipPath
       id="clipPath3905">
      <use
         height="100%"
         width="100%"
         y="0"
         x="0"
         id="use3903"
         overflow="visible"
         xlink:href="#XMLID_495_" />
    </clipPath>
    <clipPath
       id="XMLID_585_-7">
      <use
         height="100%"
         width="100%"
         y="0"
         x="0"
         id="use348-1"
         overflow="visible"
         xlink:href="#XMLID_532_" />
    </clipPath>
    <clipPath
       id="clipPath3911">
      <use
         height="100%"
         width="100%"
         y="0"
         x="0"
         id="use3909"
         overflow="visible"
         xlink:href="#XMLID_532_" />
    </clipPath>
    <rect
       height="23.6"
       width="266.39999"
       y="270"
       x="23.1"
       id="rect493-5" />
    <rect
       height="23.6"
       width="266.39999"
       y="270"
       x="23.1"
       id="rect522-4" />
    <clipPath
       id="XMLID_584_-85-9">
      <use
         height="100%"
         width="100%"
         y="0"
         x="0"
         id="use318-06-1"
         overflow="visible"
         xlink:href="#XMLID_495_" />
    </clipPath>
    <clipPath
       id="clipPath5396">
      <use
         height="100%"
         width="100%"
         y="0"
         x="0"
         id="use5394"
         overflow="visible"
         xlink:href="#XMLID_495_" />
    </clipPath>
    <clipPath
       id="XMLID_585_-7-3">
      <use
         height="100%"
         width="100%"
         y="0"
         x="0"
         id="use348-1-1"
         overflow="visible"
         xlink:href="#XMLID_532_" />
    </clipPath>
    <clipPath
       id="clipPath5402">
      <use
         height="100%"
         width="100%"
         y="0"
         x="0"
         id="use5400"
         overflow="visible"
         xlink:href="#XMLID_532_" />
    </clipPath>
    <rect
       height="23.6"
       width="266.39999"
       y="270"
       x="23.1"
       id="rect4108-3" />
    <rect
       height="23.6"
       width="266.39999"
       y="270"
       x="23.1"
       id="rect4137-8" />
    <rect
       height="36.700001"
       width="414.60001"
       y="687"
       x="306"
       id="XMLID_456_-3" />
    <rect
       height="36.700001"
       width="414.60001"
       y="687"
       x="306"
       id="XMLID_424_-7" />
    <rect
       height="23.6"
       width="266.39999"
       y="270"
       x="23.1"
       id="XMLID_495_-0" />
    <rect
       height="23.6"
       width="266.39999"
       y="270"
       x="23.1"
       id="XMLID_532_-7" />
    <clipPath
       id="XMLID_584_-6">
      <use
         height="100%"
         width="100%"
         y="0"
         x="0"
         id="use318-1"
         overflow="visible"
         xlink:href="#XMLID_495_" />
    </clipPath>
    <clipPath
       id="clipPath6486">
      <use
         height="100%"
         width="100%"
         y="0"
         x="0"
         id="use6484"
         overflow="visible"
         xlink:href="#XMLID_495_" />
    </clipPath>
    <clipPath
       id="XMLID_585_-02">
      <use
         height="100%"
         width="100%"
         y="0"
         x="0"
         id="use348-2"
         overflow="visible"
         xlink:href="#XMLID_532_" />
    </clipPath>
    <clipPath
       id="clipPath6492">
      <use
         height="100%"
         width="100%"
         y="0"
         x="0"
         id="use6490"
         overflow="visible"
         xlink:href="#XMLID_532_" />
    </clipPath>
    <rect
       height="23.6"
       width="266.39999"
       y="270"
       x="23.1"
       id="rect493-4" />
    <rect
       height="23.6"
       width="266.39999"
       y="270"
       x="23.1"
       id="rect522-9" />
    <clipPath
       id="XMLID_584_-6-2">
      <use
         height="100%"
         width="100%"
         y="0"
         x="0"
         id="use318-1-6"
         overflow="visible"
         xlink:href="#XMLID_495_" />
    </clipPath>
    <clipPath
       id="clipPath6917">
      <use
         height="100%"
         width="100%"
         y="0"
         x="0"
         id="use6915"
         overflow="visible"
         xlink:href="#XMLID_495_" />
    </clipPath>
    <clipPath
       id="XMLID_585_-02-5">
      <use
         height="100%"
         width="100%"
         y="0"
         x="0"
         id="use348-2-1"
         overflow="visible"
         xlink:href="#XMLID_532_" />
    </clipPath>
    <clipPath
       id="clipPath6923">
      <use
         height="100%"
         width="100%"
         y="0"
         x="0"
         id="use6921"
         overflow="visible"
         xlink:href="#XMLID_532_" />
    </clipPath>
    <rect
       height="23.6"
       width="266.39999"
       y="270"
       x="23.1"
       id="rect6649-4" />
    <rect
       height="23.6"
       width="266.39999"
       y="270"
       x="23.1"
       id="rect6678-6" />
    <clipPath
       id="XMLID_584_-6-2-2">
      <use
         height="100%"
         width="100%"
         y="0"
         x="0"
         id="use318-1-6-0"
         overflow="visible"
         xlink:href="#XMLID_495_" />
    </clipPath>
    <clipPath
       id="clipPath7254">
      <use
         height="100%"
         width="100%"
         y="0"
         x="0"
         id="use7252"
         overflow="visible"
         xlink:href="#XMLID_495_" />
    </clipPath>
    <clipPath
       id="XMLID_585_-02-5-1">
      <use
         height="100%"
         width="100%"
         y="0"
         x="0"
         id="use348-2-1-3"
         overflow="visible"
         xlink:href="#XMLID_532_" />
    </clipPath>
    <clipPath
       id="clipPath7260">
      <use
         height="100%"
         width="100%"
         y="0"
         x="0"
         id="use7258"
         overflow="visible"
         xlink:href="#XMLID_532_" />
    </clipPath>
    <rect
       height="23.6"
       width="266.39999"
       y="270"
       x="23.1"
       id="rect7076-4" />
    <rect
       height="23.6"
       width="266.39999"
       y="270"
       x="23.1"
       id="rect7105-1" />
    <clipPath
       id="XMLID_584_-5">
      <use
         height="100%"
         width="100%"
         y="0"
         x="0"
         id="use318-59"
         overflow="visible"
         xlink:href="#XMLID_495_" />
    </clipPath>
    <clipPath
       id="clipPath7501">
      <use
         height="100%"
         width="100%"
         y="0"
         x="0"
         id="use7499"
         overflow="visible"
         xlink:href="#XMLID_495_" />
    </clipPath>
    <clipPath
       id="XMLID_585_-1">
      <use
         height="100%"
         width="100%"
         y="0"
         x="0"
         id="use348-5"
         overflow="visible"
         xlink:href="#XMLID_532_" />
    </clipPath>
    <clipPath
       id="clipPath7507">
      <use
         height="100%"
         width="100%"
         y="0"
         x="0"
         id="use7505"
         overflow="visible"
         xlink:href="#XMLID_532_" />
    </clipPath>
    <rect
       height="23.6"
       width="266.39999"
       y="270"
       x="23.1"
       id="rect493-91" />
    <rect
       height="23.6"
       width="266.39999"
       y="270"
       x="23.1"
       id="rect522-5" />
    <clipPath
       id="XMLID_584_-5-5">
      <use
         height="100%"
         width="100%"
         y="0"
         x="0"
         id="use318-59-1"
         overflow="visible"
         xlink:href="#XMLID_495_" />
    </clipPath>
    <clipPath
       id="clipPath8493">
      <use
         height="100%"
         width="100%"
         y="0"
         x="0"
         id="use8491"
         overflow="visible"
         xlink:href="#XMLID_495_" />
    </clipPath>
    <clipPath
       id="XMLID_585_-1-0">
      <use
         height="100%"
         width="100%"
         y="0"
         x="0"
         id="use348-5-4"
         overflow="visible"
         xlink:href="#XMLID_532_" />
    </clipPath>
    <clipPath
       id="clipPath8499">
      <use
         height="100%"
         width="100%"
         y="0"
         x="0"
         id="use8497"
         overflow="visible"
         xlink:href="#XMLID_532_" />
    </clipPath>
    <rect
       height="23.6"
       width="266.39999"
       y="270"
       x="23.1"
       id="rect7708-1" />
    <rect
       height="23.6"
       width="266.39999"
       y="270"
       x="23.1"
       id="rect7737-0" />
    <clipPath
       id="XMLID_584_-6-2-2-8">
      <use
         height="100%"
         width="100%"
         y="0"
         x="0"
         id="use318-1-6-0-0"
         overflow="visible"
         xlink:href="#XMLID_495_" />
    </clipPath>
    <clipPath
       id="clipPath9099">
      <use
         height="100%"
         width="100%"
         y="0"
         x="0"
         id="use9097"
         overflow="visible"
         xlink:href="#XMLID_495_" />
    </clipPath>
    <clipPath
       id="XMLID_585_-02-5-1-6">
      <use
         height="100%"
         width="100%"
         y="0"
         x="0"
         id="use348-2-1-3-0"
         overflow="visible"
         xlink:href="#XMLID_532_" />
    </clipPath>
    <clipPath
       id="clipPath9105">
      <use
         height="100%"
         width="100%"
         y="0"
         x="0"
         id="use9103"
         overflow="visible"
         xlink:href="#XMLID_532_" />
    </clipPath>
    <rect
       height="23.6"
       width="266.39999"
       y="270"
       x="23.1"
       id="rect7413-1" />
    <rect
       height="23.6"
       width="266.39999"
       y="270"
       x="23.1"
       id="rect7442-7" />
    <clipPath
       id="XMLID_584_-6-2-2-8-2">
      <use
         height="100%"
         width="100%"
         y="0"
         x="0"
         id="use318-1-6-0-0-2"
         overflow="visible"
         xlink:href="#XMLID_495_" />
    </clipPath>
    <clipPath
       id="clipPath9436">
      <use
         height="100%"
         width="100%"
         y="0"
         x="0"
         id="use9434"
         overflow="visible"
         xlink:href="#XMLID_495_" />
    </clipPath>
    <clipPath
       id="XMLID_585_-02-5-1-6-9">
      <use
         height="100%"
         width="100%"
         y="0"
         x="0"
         id="use348-2-1-3-0-1"
         overflow="visible"
         xlink:href="#XMLID_532_" />
    </clipPath>
    <clipPath
       id="clipPath9442">
      <use
         height="100%"
         width="100%"
         y="0"
         x="0"
         id="use9440"
         overflow="visible"
         xlink:href="#XMLID_532_" />
    </clipPath>
    <rect
       height="23.6"
       width="266.39999"
       y="270"
       x="23.1"
       id="rect9258-4" />
    <rect
       height="23.6"
       width="266.39999"
       y="270"
       x="23.1"
       id="rect9287-0" />
    <clipPath
       id="XMLID_584_-6-2-2-8-2-9">
      <use
         height="100%"
         width="100%"
         y="0"
         x="0"
         id="use318-1-6-0-0-2-4"
         overflow="visible"
         xlink:href="#XMLID_495_" />
    </clipPath>
    <clipPath
       id="clipPath9779">
      <use
         height="100%"
         width="100%"
         y="0"
         x="0"
         id="use9777"
         overflow="visible"
         xlink:href="#XMLID_495_" />
    </clipPath>
    <clipPath
       id="XMLID_585_-02-5-1-6-9-6">
      <use
         height="100%"
         width="100%"
         y="0"
         x="0"
         id="use348-2-1-3-0-1-5"
         overflow="visible"
         xlink:href="#XMLID_532_" />
    </clipPath>
    <clipPath
       id="clipPath9785">
      <use
         height="100%"
         width="100%"
         y="0"
         x="0"
         id="use9783"
         overflow="visible"
         xlink:href="#XMLID_532_" />
    </clipPath>
    <rect
       height="23.6"
       width="266.39999"
       y="270"
       x="23.1"
       id="rect9595-8" />
    <rect
       height="23.6"
       width="266.39999"
       y="270"
       x="23.1"
       id="rect9624-8" />
  </defs>
  <g
     id="layer1"
     inkscape:groupmode="layer"
     inkscape:label="Layer 1"
     transform="translate(-0.70404366,-68.323614)">
    <g
       transform="matrix(0.26458333,0,0,0.26458333,2.6872229,7.6661074)"
       id="g550">
      <g
         display="none"
         id="XMLID_55_">
        <g
           display="inline"
           id="XMLID_801_">
          <path
             d="m 1098.2,760.5 c 1.6,2.1 2.4,4.8 2.4,8 0,4.4 -1.7,7.7 -5,10.1 -3.4,2.4 -8.3,3.6 -14.7,3.6 h -25.1 v -50.4 h 23.6 c 6,0 10.5,1.2 13.8,3.5 3.2,2.3 4.8,5.5 4.8,9.6 0,2.5 -0.6,4.7 -1.7,6.6 -1.2,1.9 -2.7,3.4 -4.8,4.5 2.8,0.8 5.1,2.4 6.7,4.5 z m -33,-21.4 V 753 h 13.2 c 3.3,0 5.8,-0.6 7.5,-1.8 1.8,-1.2 2.6,-2.9 2.6,-5.1 0,-2.3 -0.9,-4 -2.6,-5.2 -1.8,-1.2 -4.3,-1.8 -7.5,-1.8 z m 26,28.4 c 0,-4.8 -3.6,-7.3 -10.9,-7.3 h -15.1 v 14.5 h 15.1 c 7.3,0.1 10.9,-2.3 10.9,-7.2 z"
             fill="#383535"
             id="XMLID_828_" />
          <path
             d="m 1110.2,735.8 c -1.1,-1 -1.7,-2.3 -1.7,-3.9 0,-1.6 0.6,-2.8 1.7,-3.9 1.1,-1 2.5,-1.5 4.1,-1.5 1.6,0 3,0.5 4.1,1.5 1.1,1 1.7,2.2 1.7,3.7 0,1.6 -0.5,2.9 -1.6,4 -1.1,1.1 -2.5,1.6 -4.1,1.6 -1.7,0 -3.1,-0.5 -4.2,-1.5 z m -0.4,7.9 h 9 v 38.4 h -9 z"
             fill="#383535"
             id="XMLID_825_" />
          <path
             d="m 1137.4,780.1 c -3.1,-1.7 -5.6,-4 -7.3,-7 -1.8,-3 -2.6,-6.4 -2.6,-10.2 0,-3.8 0.9,-7.2 2.6,-10.2 1.8,-3 4.2,-5.3 7.3,-7 3.1,-1.7 6.6,-2.5 10.5,-2.5 3.9,0 7.5,0.8 10.6,2.5 3.1,1.7 5.6,4 7.3,7 1.8,3 2.6,6.4 2.6,10.2 0,3.8 -0.9,7.2 -2.6,10.2 -1.8,3 -4.2,5.3 -7.3,7 -3.1,1.7 -6.6,2.5 -10.6,2.5 -3.9,0 -7.4,-0.8 -10.5,-2.5 z m 18.7,-8.5 c 2.2,-2.2 3.2,-5.1 3.2,-8.7 0,-3.6 -1.1,-6.5 -3.2,-8.7 -2.1,-2.2 -4.9,-3.3 -8.2,-3.3 -3.3,0 -6,1.1 -8.2,3.3 -2.1,2.2 -3.2,5.1 -3.2,8.7 0,3.6 1.1,6.5 3.2,8.7 2.1,2.2 4.9,3.3 8.2,3.3 3.3,0 6,-1.1 8.2,-3.3 z"
             fill="#383535"
             id="XMLID_822_" />
          <path
             d="m 1199.3,743.2 v 8.6 c -0.8,-0.1 -1.5,-0.2 -2.1,-0.2 -3.5,0 -6.2,1 -8.2,3.1 -2,2 -3,5 -3,8.8 v 18.6 h -9 v -38.4 h 8.6 v 5.6 c 2.6,-4 7.1,-6.1 13.7,-6.1 z"
             fill="#383535"
             id="XMLID_820_" />
          <path
             d="m 1213.3,780.1 c -3.1,-1.7 -5.6,-4 -7.3,-7 -1.8,-3 -2.6,-6.4 -2.6,-10.2 0,-3.8 0.9,-7.2 2.6,-10.2 1.8,-3 4.2,-5.3 7.3,-7 3.1,-1.7 6.6,-2.5 10.5,-2.5 3.9,0 7.5,0.8 10.6,2.5 3.1,1.7 5.6,4 7.3,7 1.8,3 2.6,6.4 2.6,10.2 0,3.8 -0.9,7.2 -2.6,10.2 -1.8,3 -4.2,5.3 -7.3,7 -3.1,1.7 -6.6,2.5 -10.6,2.5 -3.9,0 -7.4,-0.8 -10.5,-2.5 z m 18.7,-8.5 c 2.2,-2.2 3.2,-5.1 3.2,-8.7 0,-3.6 -1.1,-6.5 -3.2,-8.7 -2.2,-2.2 -4.9,-3.3 -8.2,-3.3 -3.3,0 -6,1.1 -8.2,3.3 -2.1,2.2 -3.2,5.1 -3.2,8.7 0,3.6 1.1,6.5 3.2,8.7 2.1,2.2 4.9,3.3 8.2,3.3 3.3,0 6.1,-1.1 8.2,-3.3 z"
             fill="#383535"
             id="XMLID_817_" />
          <path
             d="m 1284.3,745.7 c 3,1.6 5.3,3.9 6.9,6.9 1.7,3 2.5,6.4 2.5,10.3 0,3.9 -0.8,7.3 -2.5,10.3 -1.7,3 -4,5.3 -6.9,6.9 -3,1.6 -6.3,2.4 -10,2.4 -2.6,0 -5.1,-0.5 -7.2,-1.4 -2.2,-0.9 -4,-2.3 -5.5,-4.1 v 5 h -8.6 v -53.4 h 9 v 19.7 c 1.5,-1.7 3.3,-3 5.4,-3.8 2.1,-0.8 4.4,-1.3 6.9,-1.3 3.7,0 7.1,0.9 10,2.5 z m -2.8,25.9 c 2.1,-2.2 3.2,-5.1 3.2,-8.7 0,-3.6 -1.1,-6.5 -3.2,-8.7 -2.1,-2.2 -4.9,-3.3 -8.2,-3.3 -2.2,0 -4.1,0.5 -5.8,1.5 -1.7,1 -3.1,2.4 -4.1,4.2 -1,1.8 -1.5,3.9 -1.5,6.3 0,2.4 0.5,4.5 1.5,6.3 1,1.8 2.4,3.2 4.1,4.2 1.7,1 3.7,1.5 5.8,1.5 3.3,0 6,-1.1 8.2,-3.3 z"
             fill="#383535"
             id="XMLID_814_" />
          <path
             d="m 1309.1,780.1 c -3.1,-1.7 -5.6,-4 -7.3,-7 -1.8,-3 -2.6,-6.4 -2.6,-10.2 0,-3.8 0.9,-7.2 2.6,-10.2 1.8,-3 4.2,-5.3 7.3,-7 3.1,-1.7 6.6,-2.5 10.5,-2.5 3.9,0 7.5,0.8 10.6,2.5 3.1,1.7 5.6,4 7.3,7 1.8,3 2.6,6.4 2.6,10.2 0,3.8 -0.9,7.2 -2.6,10.2 -1.8,3 -4.2,5.3 -7.3,7 -3.1,1.7 -6.6,2.5 -10.6,2.5 -3.8,0 -7.3,-0.8 -10.5,-2.5 z m 18.8,-8.5 c 2.2,-2.2 3.2,-5.1 3.2,-8.7 0,-3.6 -1.1,-6.5 -3.2,-8.7 -2.1,-2.2 -4.9,-3.3 -8.2,-3.3 -3.3,0 -6,1.1 -8.2,3.3 -2.1,2.2 -3.2,5.1 -3.2,8.7 0,3.6 1.1,6.5 3.2,8.7 2.1,2.2 4.9,3.3 8.2,3.3 3.3,0 6,-1.1 8.2,-3.3 z"
             fill="#383535"
             id="XMLID_811_" />
          <path
             d="m 1370.4,780 c -1.1,0.9 -2.3,1.5 -3.9,1.9 -1.5,0.4 -3.1,0.6 -4.8,0.6 -4.2,0 -7.5,-1.1 -9.8,-3.3 -2.3,-2.2 -3.5,-5.4 -3.5,-9.6 v -34.5 h 9 v 8.8 h 10.3 v 7.2 h -10.3 v 18.3 c 0,1.9 0.5,3.3 1.4,4.3 0.9,1 2.2,1.5 3.9,1.5 2,0 3.7,-0.5 5,-1.6 z"
             fill="#383535"
             id="XMLID_809_" />
          <path
             d="m 1378.3,735.8 c -1.1,-1 -1.7,-2.3 -1.7,-3.9 0,-1.6 0.6,-2.8 1.7,-3.9 1.1,-1 2.5,-1.5 4.1,-1.5 1.6,0 3,0.5 4.1,1.5 1.1,1 1.7,2.2 1.7,3.7 0,1.6 -0.5,2.9 -1.6,4 -1.1,1.1 -2.5,1.6 -4.1,1.6 -1.8,0 -3.1,-0.5 -4.2,-1.5 z m -0.5,7.9 h 9 v 38.4 h -9 z"
             fill="#383535"
             id="XMLID_806_" />
          <path
             d="m 1405.6,780.1 c -3.2,-1.7 -5.6,-4 -7.4,-7 -1.8,-3 -2.7,-6.4 -2.7,-10.2 0,-3.8 0.9,-7.2 2.7,-10.2 1.8,-3 4.2,-5.3 7.4,-7 3.1,-1.7 6.7,-2.5 10.8,-2.5 3.8,0 7.1,0.8 10,2.3 2.9,1.5 5,3.7 6.4,6.6 l -6.9,4 c -1.1,-1.8 -2.5,-3.1 -4.1,-4 -1.7,-0.9 -3.5,-1.3 -5.4,-1.3 -3.4,0 -6.1,1.1 -8.4,3.3 -2.2,2.2 -3.3,5.1 -3.3,8.7 0,3.6 1.1,6.6 3.3,8.7 2.2,2.2 5,3.3 8.4,3.3 2,0 3.8,-0.4 5.4,-1.3 1.7,-0.9 3,-2.2 4.1,-4 l 6.9,4 c -1.5,2.9 -3.7,5.1 -6.5,6.7 -2.9,1.6 -6.2,2.3 -9.9,2.3 -4.1,0.1 -7.7,-0.7 -10.8,-2.4 z"
             fill="#383535"
             id="XMLID_804_" />
          <path
             d="m 1443.2,781.4 c -3,-0.8 -5.4,-1.8 -7.1,-3.1 l 3.5,-6.8 c 1.7,1.2 3.8,2.1 6.2,2.8 2.4,0.7 4.8,1 7.2,1 5.4,0 8.1,-1.4 8.1,-4.2 0,-1.3 -0.7,-2.3 -2.1,-2.8 -1.4,-0.5 -3.6,-1 -6.6,-1.5 -3.2,-0.5 -5.7,-1 -7.7,-1.7 -2,-0.6 -3.7,-1.7 -5.2,-3.3 -1.5,-1.6 -2.2,-3.7 -2.2,-6.5 0,-3.6 1.5,-6.6 4.6,-8.7 3,-2.2 7.2,-3.3 12.3,-3.3 2.6,0 5.3,0.3 7.9,0.9 2.6,0.6 4.8,1.4 6.5,2.4 l -3.5,6.8 c -3.3,-1.9 -6.9,-2.9 -11,-2.9 -2.6,0 -4.6,0.4 -6,1.2 -1.4,0.8 -2.1,1.8 -2.1,3.1 0,1.4 0.7,2.5 2.2,3.1 1.5,0.6 3.7,1.2 6.8,1.7 3.1,0.5 5.6,1 7.6,1.7 2,0.6 3.7,1.7 5.1,3.2 1.4,1.5 2.1,3.6 2.1,6.3 0,3.6 -1.6,6.5 -4.7,8.6 -3.1,2.2 -7.4,3.2 -12.7,3.2 -3.2,0 -6.2,-0.4 -9.2,-1.2 z"
             fill="#383535"
             id="XMLID_802_" />
        </g>
      </g>
      <g
         display="none"
         transform="translate(106.061,148.5)"
         id="Ortho_0_0_1_">
        <g
           display="inline"
           transform="scale(1,-1)"
           id="XMLID_10_">
          <path
             d="m 919.8,-612.9 -19.4,-19.4 c -0.1,-0.1 -0.3,-0.1 -0.4,0 l -19.4,19.4 c -0.2,0.2 -0.1,0.5 0.2,0.5 h 38.8 c 0.2,0 0.4,-0.3 0.2,-0.5 z"
             fill="#c62f41"
             id="_x36__1_" />
          <path
             d="m 853.3,-590.9 19.4,-19.4 c 0.1,-0.1 0.1,-0.3 0,-0.4 l -19.4,-19.4 c -0.2,-0.2 -0.5,-0.1 -0.5,0.2 v 38.8 c 0,0.2 0.4,0.4 0.5,0.2 z"
             fill="#c62f41"
             id="_x39__1_" />
          <path
             d="m 919.8,-563.7 -19.4,-19.4 c -0.1,-0.1 -0.3,-0.1 -0.4,0 l -19.4,19.4 c -0.2,0.2 -0.1,0.5 0.2,0.5 h 38.8 c 0.2,0 0.4,-0.3 0.2,-0.5 z"
             fill="#383535"
             id="_x31_2_1_" />
          <path
             d="m 919.8,-559 -19.4,19.4 c -0.1,0.1 -0.3,0.1 -0.4,0 L 880.5,-559 c -0.2,-0.2 -0.1,-0.5 0.2,-0.5 h 38.8 c 0.3,0 0.5,0.3 0.3,0.5 z"
             fill="#c42032"
             id="_x31_5_1_" />
          <path
             d="m 877.9,-566.3 19.4,-19.4 c 0.1,-0.1 0.1,-0.3 0,-0.4 l -19.4,-19.4 c -0.2,-0.2 -0.5,-0.1 -0.5,0.2 v 38.8 c 0,0.2 0.3,0.4 0.5,0.2 z"
             fill="#c62f41"
             id="_x31_8_1_" />
          <path
             d="m 919.8,-608.2 -19.4,19.4 c -0.1,0.1 -0.3,0.1 -0.4,0 l -19.4,-19.4 c -0.2,-0.2 -0.1,-0.5 0.2,-0.5 h 38.8 c 0.2,0 0.4,0.3 0.2,0.5 z"
             fill="#383535"
             id="_x32_1_1_" />
          <path
             d="m 895.2,-632.8 -19.4,19.4 c -0.1,0.1 -0.3,0.1 -0.4,0 L 856,-632.8 c -0.2,-0.2 -0.1,-0.5 0.2,-0.5 H 895 c 0.2,0 0.4,0.4 0.2,0.5 z"
             fill="#383535"
             id="_x32_4_1_" />
          <path
             d="m 865.5,-580.5 7.7,7.7 c 0.2,0.2 0.5,0.1 0.5,-0.2 v -15.4 c 0,-0.2 -0.1,-0.3 -0.3,-0.3 h -20.2 c -0.2,0 -0.3,0.1 -0.3,0.3 v 20.2 c 0,0.2 0.1,0.3 0.3,0.3 h 15.4 c 0.3,0 0.4,-0.3 0.2,-0.5 l -7.7,-7.7 c -1.5,-1.5 -1.2,-4 0.8,-5.1 1.2,-0.6 2.6,-0.3 3.6,0.7 z"
             fill="#383535"
             id="_x33_1_1_" />
          <path
             d="m 895.2,-539.1 -19.4,-19.4 c -0.1,-0.1 -0.3,-0.1 -0.4,0 l -19.4,19.4 c -0.2,0.2 -0.1,0.5 0.2,0.5 H 895 c 0.2,0 0.4,-0.4 0.2,-0.5 z m -19.8,-9.5 c 1.7,0 3.1,1.4 3.1,3.1 0,1.7 -1.4,3.1 -3.1,3.1 -1.7,0 -3.1,-1.4 -3.1,-3.1 0,-1.7 1.4,-3.1 3.1,-3.1 z"
             fill="#383535"
             id="XMLID_12_" />
        </g>
      </g>
      <g
         display="none"
         transform="translate(106.061,148.5)"
         id="Ortho_0_0_2_">
        <g
           display="inline"
           transform="scale(1,-1)"
           id="XMLID_11_">
          <path
             d="m 1202.6,-312.8 -47.8,-47.8 c -0.3,-0.3 -0.7,-0.3 -1,0 l -47.8,47.8 c -0.5,0.5 -0.1,1.2 0.5,1.2 h 95.5 c 0.7,0 1.1,-0.8 0.6,-1.2 z"
             fill="#c42032"
             id="_x36__2_" />
          <path
             d="m 1039.1,-258.8 47.8,-47.8 c 0.3,-0.3 0.3,-0.7 0,-1 l -47.8,-47.8 c -0.5,-0.5 -1.2,-0.1 -1.2,0.5 v 95.5 c 0,0.8 0.8,1.1 1.2,0.6 z"
             fill="#c42032"
             id="_x39__2_" />
          <path
             d="m 1202.6,-191.9 -47.8,-47.8 c -0.3,-0.3 -0.7,-0.3 -1,0 l -47.8,47.8 c -0.5,0.5 -0.1,1.2 0.5,1.2 h 95.5 c 0.7,0.1 1.1,-0.7 0.6,-1.2 z"
             fill="#383535"
             id="_x31_2_2_" />
          <path
             d="m 1202.6,-180.3 -47.8,47.8 c -0.3,0.3 -0.7,0.3 -1,0 l -47.8,-47.8 c -0.5,-0.5 -0.1,-1.2 0.5,-1.2 h 95.5 c 0.7,-0.1 1.1,0.7 0.6,1.2 z"
             fill="#c42032"
             id="_x31_5_2_" />
          <path
             d="m 1099.6,-198.3 47.8,-47.8 c 0.3,-0.3 0.3,-0.7 0,-1 l -47.8,-47.8 c -0.5,-0.5 -1.2,-0.1 -1.2,0.5 v 95.5 c 0,0.8 0.7,1.1 1.2,0.6 z"
             fill="#c42032"
             id="_x31_8_2_" />
          <path
             d="m 1202.6,-301.3 -47.8,47.8 c -0.3,0.3 -0.7,0.3 -1,0 l -47.8,-47.8 c -0.5,-0.5 -0.1,-1.2 0.5,-1.2 h 95.5 c 0.7,0 1.1,0.8 0.6,1.2 z"
             fill="#383535"
             id="_x32_1_2_" />
          <path
             d="m 1142.1,-361.8 -47.8,47.8 c -0.3,0.3 -0.7,0.3 -1,0 l -47.8,-47.8 c -0.5,-0.5 -0.1,-1.2 0.5,-1.2 h 95.5 c 0.7,0 1.1,0.8 0.6,1.2 z"
             fill="#383535"
             id="_x32_4_2_" />
          <path
             d="m 1069.1,-233.2 18.9,18.9 c 0.5,0.5 1.2,0.1 1.2,-0.5 v -37.8 c 0,-0.4 -0.3,-0.7 -0.7,-0.7 h -49.8 c -0.4,0 -0.7,0.3 -0.7,0.7 v 49.8 c 0,0.4 0.3,0.7 0.7,0.7 h 37.9 c 0.6,0 1,-0.8 0.5,-1.2 l -18.9,-18.9 c -3.6,-3.6 -2.9,-9.9 2,-12.4 2.9,-1.7 6.5,-1 8.9,1.4 z"
             fill="#383535"
             id="_x33_1_2_" />
          <path
             d="m 1142.1,-131.4 -47.8,-47.8 c -0.3,-0.3 -0.7,-0.3 -1,0 l -47.8,47.8 c -0.5,0.5 -0.1,1.2 0.5,1.2 h 95.5 c 0.7,0.1 1.1,-0.7 0.6,-1.2 z m -48.7,-23.3 c 4.2,0 7.6,3.4 7.6,7.6 0,4.2 -3.4,7.6 -7.6,7.6 -4.2,0 -7.6,-3.4 -7.6,-7.6 0,-4.2 3.5,-7.6 7.6,-7.6 z"
             fill="#383535"
             id="XMLID_16_" />
        </g>
      </g>
      <g
         display="none"
         id="XMLID_6_">
        <g
           display="inline"
           id="XMLID_833_">
          <path
             d="m 1096.1,563.8 c 1.2,1.5 1.7,3.4 1.7,5.7 0,3.1 -1.2,5.5 -3.6,7.2 -2.4,1.7 -5.9,2.5 -10.5,2.5 h -17.9 v -36 h 16.9 c 4.2,0 7.5,0.8 9.8,2.5 2.3,1.7 3.4,3.9 3.4,6.9 0,1.8 -0.4,3.4 -1.2,4.7 -0.8,1.4 -2,2.4 -3.4,3.2 2.1,0.7 3.7,1.8 4.8,3.3 z m -23.5,-15.3 v 9.9 h 9.5 c 2.3,0 4.1,-0.4 5.4,-1.3 1.3,-0.8 1.9,-2.1 1.9,-3.7 0,-1.6 -0.6,-2.9 -1.9,-3.7 -1.3,-0.8 -3,-1.3 -5.4,-1.3 h -9.5 z m 18.5,20.3 c 0,-3.5 -2.6,-5.2 -7.8,-5.2 h -10.8 V 574 h 10.8 c 5.2,0 7.8,-1.7 7.8,-5.2 z"
             fill="#383535"
             id="XMLID_860_" />
          <path
             d="m 1104.7,546.2 c -0.8,-0.7 -1.2,-1.7 -1.2,-2.7 0,-1.1 0.4,-2 1.2,-2.7 0.8,-0.7 1.8,-1.1 2.9,-1.1 1.2,0 2.1,0.4 2.9,1.1 0.8,0.7 1.2,1.6 1.2,2.6 0,1.1 -0.4,2.1 -1.2,2.9 -0.8,0.8 -1.8,1.2 -3,1.2 -1,-0.2 -2,-0.6 -2.8,-1.3 z m -0.3,5.6 h 6.4 v 27.4 h -6.4 z"
             fill="#383535"
             id="XMLID_857_" />
          <path
             d="m 1124.1,577.8 c -2.2,-1.2 -4,-2.9 -5.2,-5 -1.3,-2.1 -1.9,-4.6 -1.9,-7.3 0,-2.7 0.6,-5.1 1.9,-7.2 1.3,-2.1 3,-3.8 5.2,-5 2.2,-1.2 4.7,-1.8 7.5,-1.8 2.8,0 5.3,0.6 7.6,1.8 2.2,1.2 4,2.9 5.2,5 1.3,2.1 1.9,4.5 1.9,7.2 0,2.7 -0.6,5.1 -1.9,7.3 -1.3,2.1 -3,3.8 -5.2,5 -2.2,1.2 -4.7,1.8 -7.6,1.8 -2.8,0 -5.3,-0.6 -7.5,-1.8 z m 13.3,-6 c 1.5,-1.6 2.3,-3.6 2.3,-6.2 0,-2.6 -0.8,-4.6 -2.3,-6.2 -1.5,-1.6 -3.5,-2.4 -5.9,-2.4 -2.4,0 -4.3,0.8 -5.8,2.4 -1.5,1.6 -2.3,3.6 -2.3,6.2 0,2.6 0.8,4.6 2.3,6.2 1.5,1.6 3.5,2.4 5.8,2.4 2.4,-0.1 4.4,-0.9 5.9,-2.4 z"
             fill="#383535"
             id="XMLID_854_" />
          <path
             d="m 1168.3,551.5 v 6.1 c -0.5,-0.1 -1,-0.2 -1.5,-0.2 -2.5,0 -4.5,0.7 -5.9,2.2 -1.4,1.5 -2.1,3.6 -2.1,6.3 v 13.3 h -6.4 v -27.4 h 6.1 v 4 c 1.8,-2.9 5.1,-4.3 9.8,-4.3 z"
             fill="#383535"
             id="XMLID_852_" />
          <path
             d="m 1178.3,577.8 c -2.2,-1.2 -4,-2.9 -5.2,-5 -1.3,-2.1 -1.9,-4.6 -1.9,-7.3 0,-2.7 0.6,-5.1 1.9,-7.2 1.3,-2.1 3,-3.8 5.2,-5 2.2,-1.2 4.7,-1.8 7.5,-1.8 2.8,0 5.3,0.6 7.6,1.8 2.2,1.2 4,2.9 5.2,5 1.3,2.1 1.9,4.5 1.9,7.2 0,2.7 -0.6,5.1 -1.9,7.3 -1.3,2.1 -3,3.8 -5.2,5 -2.2,1.2 -4.7,1.8 -7.6,1.8 -2.8,0 -5.3,-0.6 -7.5,-1.8 z m 13.3,-6 c 1.5,-1.6 2.3,-3.6 2.3,-6.2 0,-2.6 -0.8,-4.6 -2.3,-6.2 -1.5,-1.6 -3.5,-2.4 -5.9,-2.4 -2.4,0 -4.3,0.8 -5.8,2.4 -1.5,1.6 -2.3,3.6 -2.3,6.2 0,2.6 0.8,4.6 2.3,6.2 1.5,1.6 3.5,2.4 5.8,2.4 2.5,-0.1 4.4,-0.9 5.9,-2.4 z"
             fill="#383535"
             id="XMLID_849_" />
          <path
             d="m 1229,553.3 c 2.1,1.2 3.8,2.8 5,4.9 1.2,2.1 1.8,4.6 1.8,7.3 0,2.7 -0.6,5.2 -1.8,7.4 -1.2,2.1 -2.9,3.8 -5,5 -2.1,1.2 -4.5,1.7 -7.2,1.7 -1.9,0 -3.6,-0.3 -5.2,-1 -1.6,-0.7 -2.9,-1.6 -3.9,-2.9 v 3.5 h -6.1 v -38.1 h 6.4 v 14 c 1.1,-1.2 2.4,-2.1 3.9,-2.7 1.5,-0.6 3.1,-0.9 4.9,-0.9 2.7,0 5.1,0.6 7.2,1.8 z m -2.1,18.5 c 1.5,-1.6 2.3,-3.6 2.3,-6.2 0,-2.6 -0.8,-4.6 -2.3,-6.2 -1.5,-1.6 -3.5,-2.4 -5.8,-2.4 -1.5,0 -2.9,0.4 -4.2,1.1 -1.2,0.7 -2.2,1.7 -2.9,3 -0.7,1.3 -1.1,2.8 -1.1,4.5 0,1.7 0.4,3.2 1.1,4.5 0.7,1.3 1.7,2.3 2.9,3 1.2,0.7 2.6,1.1 4.2,1.1 2.4,-0.1 4.3,-0.9 5.8,-2.4 z"
             fill="#383535"
             id="XMLID_846_" />
          <path
             d="m 1246.7,577.8 c -2.2,-1.2 -4,-2.9 -5.2,-5 -1.3,-2.1 -1.9,-4.6 -1.9,-7.3 0,-2.7 0.6,-5.1 1.9,-7.2 1.3,-2.1 3,-3.8 5.2,-5 2.2,-1.2 4.7,-1.8 7.5,-1.8 2.8,0 5.3,0.6 7.6,1.8 2.2,1.2 4,2.9 5.2,5 1.3,2.1 1.9,4.5 1.9,7.2 0,2.7 -0.6,5.1 -1.9,7.3 -1.3,2.1 -3,3.8 -5.2,5 -2.2,1.2 -4.7,1.8 -7.6,1.8 -2.8,0 -5.3,-0.6 -7.5,-1.8 z m 13.3,-6 c 1.5,-1.6 2.3,-3.6 2.3,-6.2 0,-2.6 -0.8,-4.6 -2.3,-6.2 -1.5,-1.6 -3.5,-2.4 -5.9,-2.4 -2.4,0 -4.3,0.8 -5.8,2.4 -1.5,1.6 -2.3,3.6 -2.3,6.2 0,2.6 0.8,4.6 2.3,6.2 1.5,1.6 3.5,2.4 5.8,2.4 2.4,-0.1 4.4,-0.9 5.9,-2.4 z"
             fill="#383535"
             id="XMLID_843_" />
          <path
             d="m 1290.4,577.8 c -0.8,0.6 -1.7,1.1 -2.7,1.4 -1.1,0.3 -2.2,0.5 -3.4,0.5 -3,0 -5.3,-0.8 -7,-2.4 -1.6,-1.6 -2.5,-3.9 -2.5,-6.9 v -24.6 h 6.4 v 6.3 h 7.3 v 5.1 h -7.3 v 13.1 c 0,1.3 0.3,2.4 1,3.1 0.7,0.7 1.6,1.1 2.8,1.1 1.4,0 2.6,-0.4 3.6,-1.1 z"
             fill="#383535"
             id="XMLID_841_" />
          <path
             d="m 1296,546.2 c -0.8,-0.7 -1.2,-1.7 -1.2,-2.7 0,-1.1 0.4,-2 1.2,-2.7 0.8,-0.7 1.8,-1.1 2.9,-1.1 1.2,0 2.1,0.4 2.9,1.1 0.8,0.7 1.2,1.6 1.2,2.6 0,1.1 -0.4,2.1 -1.2,2.9 -0.8,0.8 -1.8,1.2 -3,1.2 -1,-0.2 -2,-0.6 -2.8,-1.3 z m -0.3,5.6 h 6.4 v 27.4 h -6.4 z"
             fill="#383535"
             id="XMLID_838_" />
          <path
             d="m 1315.5,577.8 c -2.3,-1.2 -4,-2.9 -5.3,-5 -1.3,-2.1 -1.9,-4.6 -1.9,-7.3 0,-2.7 0.6,-5.1 1.9,-7.2 1.3,-2.1 3,-3.8 5.3,-5 2.2,-1.2 4.8,-1.8 7.7,-1.8 2.7,0 5.1,0.5 7.1,1.6 2,1.1 3.6,2.7 4.6,4.7 l -4.9,2.9 c -0.8,-1.3 -1.8,-2.2 -3,-2.9 -1.2,-0.6 -2.5,-1 -3.9,-1 -2.4,0 -4.4,0.8 -6,2.3 -1.6,1.6 -2.4,3.6 -2.4,6.2 0,2.6 0.8,4.7 2.3,6.2 1.6,1.6 3.6,2.3 6,2.3 1.4,0 2.7,-0.3 3.9,-1 1.2,-0.6 2.2,-1.6 3,-2.9 l 4.9,2.9 c -1.1,2.1 -2.6,3.6 -4.7,4.8 -2,1.1 -4.4,1.7 -7.1,1.7 -2.7,0.3 -5.2,-0.3 -7.5,-1.5 z"
             fill="#383535"
             id="XMLID_836_" />
          <path
             d="m 1342.4,578.7 c -2.1,-0.6 -3.8,-1.3 -5.1,-2.2 l 2.5,-4.9 c 1.2,0.8 2.7,1.5 4.4,2 1.7,0.5 3.4,0.7 5.1,0.7 3.8,0 5.8,-1 5.8,-3 0,-1 -0.5,-1.6 -1.5,-2 -1,-0.4 -2.5,-0.7 -4.7,-1.1 -2.3,-0.3 -4.1,-0.7 -5.5,-1.2 -1.4,-0.4 -2.7,-1.2 -3.7,-2.3 -1,-1.1 -1.6,-2.7 -1.6,-4.7 0,-2.6 1.1,-4.7 3.3,-6.2 2.2,-1.6 5.1,-2.3 8.8,-2.3 1.9,0 3.8,0.2 5.7,0.6 1.9,0.4 3.4,1 4.6,1.7 l -2.5,4.9 c -2.3,-1.4 -5,-2.1 -7.9,-2.1 -1.9,0 -3.3,0.3 -4.3,0.8 -1,0.6 -1.5,1.3 -1.5,2.2 0,1 0.5,1.8 1.6,2.2 1,0.4 2.7,0.8 4.9,1.2 2.2,0.3 4,0.7 5.4,1.2 1.4,0.4 2.6,1.2 3.6,2.3 1,1.1 1.5,2.6 1.5,4.5 0,2.6 -1.1,4.6 -3.3,6.2 -2.2,1.5 -5.3,2.3 -9.1,2.3 -2.2,0.1 -4.4,-0.2 -6.5,-0.8 z"
             fill="#383535"
             id="XMLID_834_" />
        </g>
      </g>
      <g
         display="none"
         id="XMLID_2_">
        <path
           d="m 348.5,759.9 c 1.6,2.1 2.4,4.8 2.4,8 0,4.4 -1.7,7.7 -5,10.1 -3.4,2.4 -8.3,3.6 -14.7,3.6 h -25.1 v -50.4 h 23.6 c 6,0 10.5,1.2 13.8,3.5 3.2,2.3 4.8,5.5 4.8,9.6 0,2.5 -0.6,4.7 -1.7,6.6 -1.2,1.9 -2.7,3.4 -4.8,4.5 2.9,0.8 5.1,2.3 6.7,4.5 z m -33,-21.5 v 13.9 h 13.2 c 3.3,0 5.8,-0.6 7.5,-1.8 1.8,-1.2 2.6,-2.9 2.6,-5.1 0,-2.3 -0.9,-4 -2.6,-5.2 -1.8,-1.2 -4.3,-1.8 -7.5,-1.8 z m 26,28.5 c 0,-4.8 -3.6,-7.3 -10.9,-7.3 h -15.1 v 14.5 h 15.1 c 7.3,0.1 10.9,-2.4 10.9,-7.2 z"
           display="inline"
           id="XMLID_3_" />
        <path
           d="m 360.5,735.2 c -1.1,-1 -1.7,-2.3 -1.7,-3.9 0,-1.6 0.6,-2.8 1.7,-3.9 1.1,-1 2.5,-1.5 4.1,-1.5 1.6,0 3,0.5 4.1,1.5 1.1,1 1.7,2.2 1.7,3.7 0,1.6 -0.5,2.9 -1.6,4 -1.1,1.1 -2.5,1.6 -4.1,1.6 -1.7,0 -3.1,-0.5 -4.2,-1.5 z m -0.4,7.9 h 9 v 38.4 h -9 z"
           display="inline"
           id="XMLID_15_" />
        <path
           d="m 387.7,779.5 c -3.1,-1.7 -5.6,-4 -7.3,-7 -1.8,-3 -2.6,-6.4 -2.6,-10.2 0,-3.8 0.9,-7.2 2.6,-10.2 1.8,-3 4.2,-5.3 7.3,-7 3.1,-1.7 6.6,-2.5 10.5,-2.5 3.9,0 7.5,0.8 10.6,2.5 3.1,1.7 5.6,4 7.3,7 1.8,3 2.6,6.4 2.6,10.2 0,3.8 -0.9,7.2 -2.6,10.2 -1.8,3 -4.2,5.3 -7.3,7 -3.1,1.7 -6.6,2.5 -10.6,2.5 -3.9,0 -7.4,-0.8 -10.5,-2.5 z m 18.7,-8.5 c 2.2,-2.2 3.2,-5.1 3.2,-8.7 0,-3.6 -1.1,-6.5 -3.2,-8.7 -2.2,-2.2 -4.9,-3.3 -8.2,-3.3 -3.3,0 -6,1.1 -8.2,3.3 -2.1,2.2 -3.2,5.1 -3.2,8.7 0,3.6 1.1,6.5 3.2,8.7 2.1,2.2 4.9,3.3 8.2,3.3 3.3,0 6,-1.1 8.2,-3.3 z"
           display="inline"
           id="XMLID_280_" />
        <path
           d="m 449.6,742.6 v 8.6 c -0.8,-0.1 -1.5,-0.2 -2.1,-0.2 -3.5,0 -6.2,1 -8.2,3.1 -2,2 -3,5 -3,8.8 v 18.6 h -9 v -38.4 h 8.6 v 5.6 c 2.6,-4.1 7.2,-6.1 13.7,-6.1 z"
           display="inline"
           id="XMLID_350_" />
        <path
           d="m 463.6,779.5 c -3.1,-1.7 -5.6,-4 -7.3,-7 -1.8,-3 -2.6,-6.4 -2.6,-10.2 0,-3.8 0.9,-7.2 2.6,-10.2 1.8,-3 4.2,-5.3 7.3,-7 3.1,-1.7 6.6,-2.5 10.5,-2.5 3.9,0 7.5,0.8 10.6,2.5 3.1,1.7 5.6,4 7.3,7 1.8,3 2.6,6.4 2.6,10.2 0,3.8 -0.9,7.2 -2.6,10.2 -1.8,3 -4.2,5.3 -7.3,7 -3.1,1.7 -6.6,2.5 -10.6,2.5 -3.8,0 -7.3,-0.8 -10.5,-2.5 z m 18.8,-8.5 c 2.2,-2.2 3.2,-5.1 3.2,-8.7 0,-3.6 -1.1,-6.5 -3.2,-8.7 -2.2,-2.2 -4.9,-3.3 -8.2,-3.3 -3.3,0 -6,1.1 -8.2,3.3 -2.1,2.2 -3.2,5.1 -3.2,8.7 0,3.6 1.1,6.5 3.2,8.7 2.1,2.2 4.9,3.3 8.2,3.3 3.3,0 6,-1.1 8.2,-3.3 z"
           display="inline"
           id="XMLID_355_" />
        <path
           d="m 534.7,745.1 c 3,1.6 5.3,3.9 6.9,6.9 1.7,3 2.5,6.4 2.5,10.3 0,3.9 -0.8,7.3 -2.5,10.3 -1.7,3 -4,5.3 -6.9,6.9 -3,1.6 -6.3,2.4 -10,2.4 -2.6,0 -5.1,-0.5 -7.2,-1.4 -2.2,-0.9 -4,-2.3 -5.5,-4.1 v 5 h -8.6 V 728 h 9 v 19.7 c 1.5,-1.7 3.3,-3 5.4,-3.8 2.1,-0.8 4.4,-1.3 6.9,-1.3 3.7,0 7,0.8 10,2.5 z m -2.9,25.9 c 2.1,-2.2 3.2,-5.1 3.2,-8.7 0,-3.6 -1.1,-6.5 -3.2,-8.7 -2.1,-2.2 -4.9,-3.3 -8.2,-3.3 -2.2,0 -4.1,0.5 -5.8,1.5 -1.7,1 -3.1,2.4 -4.1,4.2 -1,1.8 -1.5,3.9 -1.5,6.3 0,2.4 0.5,4.5 1.5,6.3 1,1.8 2.4,3.2 4.1,4.2 1.7,1 3.7,1.5 5.8,1.5 3.3,0 6,-1.1 8.2,-3.3 z"
           display="inline"
           id="XMLID_360_" />
        <path
           d="m 559.5,779.5 c -3.1,-1.7 -5.6,-4 -7.3,-7 -1.8,-3 -2.6,-6.4 -2.6,-10.2 0,-3.8 0.9,-7.2 2.6,-10.2 1.8,-3 4.2,-5.3 7.3,-7 3.1,-1.7 6.6,-2.5 10.5,-2.5 3.9,0 7.5,0.8 10.6,2.5 3.1,1.7 5.6,4 7.3,7 1.8,3 2.6,6.4 2.6,10.2 0,3.8 -0.9,7.2 -2.6,10.2 -1.8,3 -4.2,5.3 -7.3,7 -3.1,1.7 -6.6,2.5 -10.6,2.5 -3.9,0 -7.4,-0.8 -10.5,-2.5 z m 18.7,-8.5 c 2.2,-2.2 3.2,-5.1 3.2,-8.7 0,-3.6 -1.1,-6.5 -3.2,-8.7 -2.1,-2.2 -4.9,-3.3 -8.2,-3.3 -3.3,0 -6,1.1 -8.2,3.3 -2.1,2.2 -3.2,5.1 -3.2,8.7 0,3.6 1.1,6.5 3.2,8.7 2.1,2.2 4.9,3.3 8.2,3.3 3.3,0 6,-1.1 8.2,-3.3 z"
           display="inline"
           id="XMLID_389_" />
        <path
           d="m 620.7,779.4 c -1.1,0.9 -2.3,1.5 -3.9,1.9 -1.5,0.4 -3.1,0.6 -4.8,0.6 -4.2,0 -7.5,-1.1 -9.8,-3.3 -2.3,-2.2 -3.5,-5.4 -3.5,-9.6 v -34.5 h 9 v 8.8 H 618 v 7.2 h -10.3 v 18.3 c 0,1.9 0.5,3.3 1.4,4.3 0.9,1 2.2,1.5 3.9,1.5 2,0 3.7,-0.5 5,-1.6 z"
           display="inline"
           id="XMLID_392_" />
        <path
           d="m 628.6,735.2 c -1.1,-1 -1.7,-2.3 -1.7,-3.9 0,-1.6 0.6,-2.8 1.7,-3.9 1.1,-1 2.5,-1.5 4.1,-1.5 1.6,0 3,0.5 4.1,1.5 1.1,1 1.7,2.2 1.7,3.7 0,1.6 -0.5,2.9 -1.6,4 -1.1,1.1 -2.5,1.6 -4.1,1.6 -1.7,0 -3.1,-0.5 -4.2,-1.5 z m -0.4,7.9 h 9 v 38.4 h -9 z"
           display="inline"
           id="XMLID_396_" />
        <path
           d="m 655.9,779.5 c -3.2,-1.7 -5.6,-4 -7.4,-7 -1.8,-3 -2.7,-6.4 -2.7,-10.2 0,-3.8 0.9,-7.2 2.7,-10.2 1.8,-3 4.2,-5.3 7.4,-7 3.1,-1.7 6.7,-2.5 10.8,-2.5 3.8,0 7.1,0.8 10,2.3 2.9,1.5 5,3.7 6.4,6.6 l -6.9,4 c -1.1,-1.8 -2.5,-3.1 -4.1,-4 -1.7,-0.9 -3.5,-1.3 -5.4,-1.3 -3.4,0 -6.1,1.1 -8.4,3.3 -2.2,2.2 -3.3,5.1 -3.3,8.7 0,3.6 1.1,6.6 3.3,8.7 2.2,2.2 5,3.3 8.4,3.3 2,0 3.8,-0.4 5.4,-1.3 1.7,-0.9 3,-2.2 4.1,-4 l 6.9,4 c -1.5,2.9 -3.7,5.1 -6.5,6.7 -2.9,1.6 -6.2,2.3 -9.9,2.3 -4.1,0.1 -7.7,-0.7 -10.8,-2.4 z"
           display="inline"
           id="XMLID_401_" />
        <path
           d="m 693.5,780.8 c -3,-0.8 -5.4,-1.8 -7.1,-3.1 l 3.5,-6.8 c 1.7,1.2 3.8,2.1 6.2,2.8 2.4,0.7 4.8,1 7.2,1 5.4,0 8.1,-1.4 8.1,-4.2 0,-1.3 -0.7,-2.3 -2.1,-2.8 -1.4,-0.5 -3.6,-1 -6.6,-1.5 -3.2,-0.5 -5.7,-1 -7.7,-1.7 -2,-0.6 -3.7,-1.7 -5.2,-3.3 -1.5,-1.6 -2.2,-3.7 -2.2,-6.5 0,-3.6 1.5,-6.6 4.6,-8.7 3,-2.2 7.2,-3.3 12.3,-3.3 2.6,0 5.3,0.3 7.9,0.9 2.6,0.6 4.8,1.4 6.5,2.4 l -3.5,6.8 c -3.3,-1.9 -6.9,-2.9 -11,-2.9 -2.6,0 -4.6,0.4 -6,1.2 -1.4,0.8 -2.1,1.8 -2.1,3.1 0,1.4 0.7,2.5 2.2,3.1 1.5,0.6 3.7,1.2 6.8,1.7 3.1,0.5 5.6,1 7.6,1.7 2,0.6 3.7,1.7 5.1,3.2 1.4,1.5 2.1,3.6 2.1,6.3 0,3.6 -1.6,6.5 -4.7,8.6 -3.1,2.2 -7.4,3.2 -12.7,3.2 -3.1,0 -6.2,-0.4 -9.2,-1.2 z"
           display="inline"
           id="XMLID_403_" />
      </g>
      <g
         display="none"
         id="XMLID_289_">
        <g
           id="g262"
           display="inline">
          <defs
             id="defs255">
            <rect
               height="36.700001"
               width="414.60001"
               y="687"
               x="306"
               id="rect443" />
          </defs>
          <clipPath
             id="XMLID_582_">
            <use
               height="100%"
               width="100%"
               y="0"
               x="0"
               id="use257"
               overflow="visible"
               xlink:href="#XMLID_456_" />
          </clipPath>
          <polygon
             points="422.5,713 422.5,698.8 420.5,698.8 420.5,697.7 427.6,697.7 427.6,713 430.1,713 430.1,714 419.9,714 419.9,713 "
             fill="#c41230"
             clip-path="url(#XMLID_582_)"
             id="XMLID_458_" />
          <path
             d="m 327,687.8 h -0.9 c 0,0.8 -0.4,1.1 -1.2,1.1 -1.6,0 -3.9,-1.9 -6.6,-1.9 -7.7,0 -12.3,7.6 -12.3,14.2 0,6.7 4.4,13.3 11.8,13.3 4.5,0 6.2,-2.1 7.4,-2.1 0.8,0 0.9,0.7 0.9,1.5 h 1 v -9.2 h -1 l -0.2,1.3 c -0.5,3 -2.9,7.5 -7.7,7.5 -4.3,0 -5.9,-3.7 -5.9,-12.8 0,-9.5 2.2,-12.8 6,-12.8 4.3,0 7.2,4.8 7.8,8.6 h 0.9 z"
             fill="#c41230"
             clip-path="url(#XMLID_582_)"
             id="XMLID_457_" />
        </g>
        <path
           id="path264"
           d="m 346.9,710.8 c 0,1 -0.6,2.1 -1,2.1 -0.7,0 -0.8,-0.7 -0.8,-1.8 v -8.5 c 0,-4.2 -3.9,-5.2 -7.7,-5.2 -3.7,0 -6.4,1.8 -6.4,3.9 0,1.3 0.7,2.4 2.4,2.4 1.4,0 2.2,-0.9 2.2,-2.2 0,-1.9 -1.9,-1.9 -1.9,-1.9 0,-0.8 2.2,-1.1 3.4,-1.1 2.8,0 3.1,1 3.1,3.2 v 3.1 l -3.6,0.3 c -3.4,0.3 -7,1.1 -7,5 0,3.2 2.9,4.5 5.7,4.5 1.4,0 4,-0.6 4.9,-2.3 0.7,1.6 2,2.3 3.7,2.3 2.4,0 3.9,-1.4 3.9,-3.6 h -0.9 z m -6.8,-1.2 c -0.1,2 -1.2,3.6 -2.9,3.6 -2.5,0 -2.6,-2.1 -2.6,-3.7 0,-2 0.2,-3.2 2.6,-3.5 l 2.9,-0.3 z"
           fill="#c41230"
           display="inline" />
        <polygon
           points="684.9,712.9 684.9,698.7 682.4,698.7 682.4,697.6 690,697.6 690,712.9 692.6,712.9 692.6,713.9 682.4,713.9 682.4,712.9 "
           fill="#c41230"
           display="inline"
           id="XMLID_453_" />
        <path
           d="m 468.8,705.5 6.1,-17.5 h 8.4 v 1 h -2.4 v 24 h 2.4 v 1 h -10.1 v -1 h 2.5 v -23.6 h -0.1 L 467,714 h -1 l -8.8,-25.1 h -0.1 v 20.9 c 0,3 0.8,3.1 2.8,3.1 h 0.1 v 1 h -6.4 v -1 0 c 2.1,0 2.5,-1.2 2.5,-2.8 V 689 h -2.5 v -1 h 9.3 z"
           fill="#c41230"
           display="inline"
           id="XMLID_452_" />
        <path
           id="path268"
           d="m 489.2,705 h 10.2 c 0,-4 -3.7,-7.8 -7.6,-7.7 -4.4,0 -8.1,3.8 -8.1,8.7 0,4.8 3.5,8.4 8.2,8.4 4.5,0 6.8,-2.8 7.6,-6.5 h -1 c -0.8,3.4 -2.6,5.4 -5.5,5.4 -3.4,0 -3.8,-2.7 -3.8,-5.2 z m 0,-1 v -2.5 c 0,-2.5 1.1,-3.2 2.3,-3.2 1.8,0 2.3,1.2 2.3,3.2 v 2.5 z"
           fill="#c41230"
           display="inline" />
        <path
           id="path270"
           d="m 642.5,705 h 10.2 c 0,-4 -3.7,-7.8 -7.6,-7.7 -4.4,0 -8.1,3.8 -8.1,8.7 0,4.8 3.5,8.4 8.2,8.4 4.5,0 6.8,-2.8 7.6,-6.5 h -1 c -0.8,3.4 -2.6,5.4 -5.5,5.4 -3.4,0 -3.8,-2.7 -3.8,-5.2 z m 0,-1 v -2.5 c 0,-2.5 1.1,-3.2 2.3,-3.2 1.8,0 2.3,1.2 2.3,3.2 v 2.5 z"
           fill="#c41230"
           display="inline" />
        <polygon
           points="509.7,714 509.7,712.9 507.1,712.9 507.1,688.1 499.5,688.1 499.5,689 502,689 502,712.9 499.5,712.9 499.5,714 "
           fill="#c41230"
           display="inline"
           id="XMLID_447_" />
        <polygon
           points="520.6,714 520.6,712.9 518,712.9 518,688.1 510.4,688.1 510.4,689 512.9,689 512.9,712.9 510.4,712.9 510.4,714 "
           fill="#c41230"
           display="inline"
           id="XMLID_446_" />
        <path
           id="path274"
           d="m 538,705.9 c 0,-5.1 -3.9,-8.6 -8.8,-8.6 -4.9,0 -8.8,3.5 -8.8,8.6 0,5.1 3.9,8.6 8.8,8.6 4.9,-0.1 8.8,-3.6 8.8,-8.6 m -5.7,3.6 c 0,2.8 -1.1,3.9 -3,3.9 -1.9,0 -3,-1.1 -3,-3.9 v -7.3 c 0,-2.8 1.1,-3.9 3,-3.9 1.9,0 3,1.1 3,3.9 z"
           fill="#c41230"
           display="inline" />
        <path
           d="m 564.5,688.9 h 2.6 v 16.4 c 0,5.7 3.9,9.2 10,9.2 6.8,0 9.7,-3.6 9.7,-9 v -14 c 0,-2.1 0.6,-2.6 1.9,-2.6 h 0.7 v -1 H 583 v 1 h 0.5 c 1.9,0 2.1,0.6 2.1,2.7 v 14.2 c 0,5 -3.1,7.3 -6.3,7.3 -5.4,0 -6.5,-3.6 -6.8,-8.3 v -15.9 h 2.4 v -1 h -10.4 z"
           fill="#c41230"
           display="inline"
           id="XMLID_443_" />
        <path
           d="m 628.4,714.3 h 1 l 5.5,-12.9 c 1.1,-2.4 1.7,-2.7 2.5,-2.8 h 0.3 v -1 H 632 v 1 h 0.7 c 1.1,0 1.6,-0.1 1.6,0.9 0,0.6 -0.2,1.2 -0.6,2.2 l -2.5,5.9 -4,-9 h 2 v -1 h -9.3 v 1 h 1.7 z"
           fill="#c41230"
           display="inline"
           id="XMLID_442_" />
        <path
           d="m 669.6,714.3 h 0.9 c 0.2,-0.6 0.6,-0.9 1.3,-0.9 1,0 2.1,0.9 4.2,0.9 3.5,0 5.9,-3 5.9,-6 0,-4.5 -3.1,-4.8 -7,-5.4 -2.1,-0.3 -3.2,-0.6 -3.2,-2.2 0,-1.7 1.5,-2.5 3.5,-2.5 2.8,0 3.8,1.8 4.8,4.2 h 0.9 v -5.2 h -0.8 c 0,0.4 -0.4,0.8 -1.1,0.8 -1.2,0 -2.1,-0.8 -3.8,-0.8 -3.7,0 -5.5,3.1 -5.5,5.5 0,4.8 3.6,5.2 6.4,5.5 2.7,0.3 3.6,0.5 3.6,2.2 0,2 -1.6,2.8 -3.6,2.8 -2.8,0 -4.7,-2.4 -5.4,-5.1 h -0.9 v 6.2 z"
           fill="#c41230"
           display="inline"
           id="XMLID_441_" />
        <polygon
           points="613.5,712.9 613.5,698.7 610.9,698.7 610.9,697.6 618.6,697.6 618.6,712.9 621.1,712.9 621.1,713.9 610.9,713.9 610.9,712.9 "
           fill="#c41230"
           display="inline"
           id="XMLID_440_" />
        <path
           d="m 613.5,692.5 c 0,1.4 1.1,2.5 2.5,2.5 1.4,0 2.5,-1.1 2.5,-2.5 0,-1.4 -1.1,-2.5 -2.5,-2.5 -1.4,0 -2.5,1.1 -2.5,2.5"
           fill="#c41230"
           display="inline"
           id="XMLID_439_" />
        <path
           d="m 684.9,692.5 c 0,1.4 1.1,2.5 2.5,2.5 1.4,0 2.5,-1.1 2.5,-2.5 0,-1.4 -1.1,-2.5 -2.5,-2.5 -1.3,0 -2.5,1.1 -2.5,2.5"
           fill="#c41230"
           display="inline"
           id="XMLID_438_" />
        <path
           id="path282"
           d="m 391.3,705 h 10.2 c 0,-4 -3.7,-7.8 -7.6,-7.7 -4.4,0 -8.1,3.8 -8.1,8.7 0,4.8 3.5,8.4 8.2,8.4 4.5,0 6.8,-2.8 7.6,-6.5 h -1 c -0.8,3.4 -2.6,5.4 -5.5,5.4 -3.4,0 -3.8,-2.7 -3.8,-5.2 z m 0,-1 v -2.5 c 0,-2.5 1.1,-3.2 2.3,-3.2 1.8,0 2.3,1.2 2.3,3.2 v 2.5 z"
           fill="#c41230"
           display="inline" />
        <path
           id="path284"
           d="M 435.8,705 H 446 c 0,-4 -3.7,-7.8 -7.6,-7.7 -4.4,0 -8.1,3.8 -8.1,8.7 0,4.8 3.5,8.4 8.2,8.4 4.5,0 6.8,-2.8 7.6,-6.5 h -1 c -0.8,3.4 -2.6,5.4 -5.5,5.4 -3.4,0 -3.8,-2.7 -3.8,-5.2 V 705 Z m 0,-1 v -2.5 c 0,-2.5 1.1,-3.2 2.3,-3.2 1.3,0 2.3,0.8 2.3,3.2 v 2.5 z"
           fill="#c41230"
           display="inline" />
        <path
           d="m 607.7,712.9 v -10 c 0,-4 -1.7,-5.8 -5.2,-5.8 -2.5,0 -5,1.4 -6,3.6 v 0 -3 h -7.6 v 1 h 2.5 v 14.2 h -2.5 v 1 h 9.8 v -1 h -2.2 v -9.7 c 0.3,-1.4 2.1,-4.5 4.1,-4.5 1.3,0 2,0.5 2,2.9 v 11.3 h -2.1 v 1 h 9.7 v -1 z"
           fill="#c41230"
           display="inline"
           id="XMLID_433_" />
        <path
           d="m 545.7,697.7 v 3 0 c 1,-2.1 3.5,-3.6 6,-3.6 3.5,0 5.2,1.9 5.2,5.8 v 10 h 2.5 v 1 h -9.7 v -1 h 2.1 v -11.3 c 0,-2.5 -0.7,-2.9 -2,-2.9 -2,0 -3.8,3.2 -4.1,4.5 v 9.7 h 2.2 v 1 H 538 v -1 h 2.5 V 698.7 H 538 v -1 z"
           fill="#c41230"
           display="inline"
           id="XMLID_432_" />
        <path
           d="m 383.2,713 v -10 c 0,-4 -1.7,-5.8 -5.2,-5.8 -2.5,0 -5,1.4 -6,3.6 v 0 -3 h -7.6 v 1 h 2.5 V 713 h -2.5 v 1 h 9.8 v -1 H 372 v -9.7 c 0.3,-1.4 2.1,-4.5 4.1,-4.5 1.3,0 2,0.5 2,2.9 V 713 H 376 v 1 h 9.7 v -1 z"
           fill="#c41230"
           display="inline"
           id="XMLID_431_" />
        <path
           d="m 422.5,692.6 c 0,1.4 1.1,2.5 2.5,2.5 1.4,0 2.5,-1.1 2.5,-2.5 0,-1.4 -1.1,-2.5 -2.5,-2.5 -1.4,0 -2.5,1.1 -2.5,2.5"
           fill="#c41230"
           display="inline"
           id="XMLID_430_" />
        <path
           d="m 714.8,697.6 v 1.1 c 1.6,0 2.3,0.1 2.3,0.9 0,0.6 -0.2,1.2 -0.6,2.2 l -2.5,5.9 -4,-9 h 2.1 v -1.1 h -12.7 v -7.9 h -0.7 c 0,3.9 -2.7,7.9 -6.4,7.9 v 1.1 h 2 v 11.4 c 0,3.5 3,4.2 4.1,4.2 2.3,0 3.8,-0.9 4.9,-2.8 l -0.8,-0.4 c -0.4,0.7 -1,1.5 -2,1.5 -0.7,0 -1.1,-0.5 -1.1,-1.7 v -12.2 h 5.1 l 6.7,15.5 -2.3,5.5 v 0 c 0,0 0,0 0,0 v 0 c -0.1,0.1 -0.2,0.2 -0.3,0.2 -0.1,0 -0.2,-0.1 -0.3,-0.2 0,0 0,0 0,0 -0.3,-1.1 -1.3,-1.8 -2.4,-1.8 -1.4,0 -2.5,1.1 -2.5,2.5 0,1 0.6,1.8 1.4,2.3 0,0 0,0 0,0 0,0 0.1,0 0.1,0 0.1,0 0.1,0 0.1,0.1 0.3,0.1 0.6,0.2 0.9,0.2 2.1,0.2 3.2,-1.4 4,-3 0.2,-0.4 0.3,-0.7 0.5,-1.1 0.3,-0.8 0.9,-2.1 1.6,-3.7 v 0 l 0.6,-1.5 v 0 l 5.2,-12.3 c 1.1,-2.4 1.5,-2.7 2.9,-2.7 v 0 -1.1 z"
           fill="#c41230"
           display="inline"
           id="XMLID_429_" />
        <g
           id="g300"
           display="inline">
          <defs
             id="defs292">
            <rect
               height="36.700001"
               width="414.60001"
               y="687"
               x="306"
               id="rect472" />
          </defs>
          <clipPath
             id="XMLID_583_">
            <use
               height="100%"
               width="100%"
               y="0"
               x="0"
               id="use294"
               overflow="visible"
               xlink:href="#XMLID_424_" />
          </clipPath>
          <path
             d="m 360.6,697.1 c -2.4,0 -4.2,1.6 -4.9,3.5 h -0.1 v -2.8 H 348 v 1 h 2.5 V 713 H 348 v 1 h 11 v -1 h -3.4 v -7.9 c 0,-2.4 0.6,-4.8 2.2,-6.1 0.1,-0.1 0.2,-0.1 0.3,0 0.1,0.1 0.2,0.2 0.2,0.3 v 0 c -0.1,0.3 -0.2,0.6 -0.2,1.1 -0.1,1.3 1.1,2.4 2.5,2.4 1.8,0 2.8,-1.3 2.8,-2.7 0.1,-1.9 -1,-3 -2.8,-3 z"
             fill="#c41230"
             clip-path="url(#XMLID_583_)"
             id="XMLID_428_" />
          <path
             id="path298"
             d="m 411.9,702.7 c 0,4.3 -1,4.4 -2.3,4.4 -1.5,0 -2.3,-0.3 -2.3,-4.5 0,-3 0.3,-4.3 2.3,-4.3 1.7,0 2.2,0.1 2.3,4.4 z m -0.6,12.6 c 3.7,0 4.7,0.2 4.7,2.4 0,2.7 -3.3,5.2 -7,5.2 -3.3,0 -4.9,-2 -5,-3.8 0,-1.6 0.8,-2.7 1.8,-3.8 z m 4.9,-17 c 0.1,0 0.2,-0.1 0.2,0 0.1,0.1 0.1,0.1 0,0.2 v 0 c -0.2,0.4 -0.3,0.8 -0.1,1.4 0.2,0.5 0.6,0.9 1.1,1 1.1,0.2 2,-0.5 2,-1.5 0,-0.7 -0.4,-1.1 -0.9,-1.4 -0.5,-0.3 -1,-0.4 -1.6,-0.4 -1,0 -2,0.5 -2.7,1.2 0,0 0,0 0,0 -0.2,-0.1 -0.3,-0.2 -0.5,-0.3 -1,-0.6 -2.3,-1 -4.1,-1 -3.1,0 -6.4,2 -6.4,5.4 0,2 1.1,3.6 3.1,4.5 v 0.1 c -1.4,0.2 -3.7,1.2 -3.7,4.2 0,1.8 0.8,3.2 2.4,3.7 v 0.1 c -1.5,0.4 -3.2,1.9 -3.2,3.7 0,2.7 3.2,4.8 7.3,4.8 5.1,0 8.5,-3.5 8.5,-8 0,-3.6 -1.8,-5.2 -5.4,-5.1 H 406 c -0.9,0 -1.5,0 -1.5,-1 0,-0.9 1.4,-1.9 2.8,-1.9 0.2,0 0.6,0.2 0.7,0.2 0.4,0.1 0.9,0.2 1.5,0.2 3.2,0 6.6,-1.8 6.6,-5.3 0,-1.1 -0.5,-2.6 -1.3,-3.5 -0.1,-0.1 0,-0.1 0,-0.2 0.4,-0.3 0.8,-0.5 1,-0.6 0.1,-0.4 0.2,-0.4 0.4,-0.5 z"
             fill="#c41230"
             clip-path="url(#XMLID_583_)" />
        </g>
        <path
           d="m 665.6,697 c -2.4,0 -4.2,1.6 -4.9,3.5 h -0.1 v -2.8 H 653 v 1 h 2.5 v 14.2 H 653 v 1 h 11 v -1 h -3.4 V 705 c 0,-2.4 0.6,-4.8 2.2,-6.1 0.1,-0.1 0.2,-0.1 0.3,0 0.1,0.1 0.2,0.2 0.2,0.3 v 0 c -0.1,0.3 -0.2,0.6 -0.2,1 0,1.3 1.1,2.4 2.5,2.4 1.8,0 2.8,-1.3 2.8,-2.7 0.2,-1.9 -1,-2.9 -2.8,-2.9 z"
           fill="#c41230"
           display="inline"
           id="XMLID_423_" />
      </g>
      <g
         transform="matrix(2.5,0,0,2.5,-576.98568,183.11338)"
         id="g6737">
        <polygon
           transform="matrix(0.38088771,0,0,0.38088771,220.74547,8.7807771)"
           points="71,52.6 59.9,41.7 73.7,49.9 82,49.9 82,55.4 73.7,55.4 59.9,63.6 "
           fill="#c42032"
           id="XMLID_461_"
           style="fill:#ffffff;fill-opacity:1" />
        <path
           style="fill:#ffffff;fill-opacity:1;stroke-width:0.380888"
           d="m 262.83356,19.2171 c -1.63782,0 -3.23754,0.30471 -4.57065,1.295018 -3.0471,2.361504 -9.40793,1.942528 -8.37953,8.303352 -1.14266,5.522872 5.21816,6.056115 8.37953,8.303352 3.16137,2.094882 7.23686,0.723687 10.20779,-0.07618 3.42799,-0.95222 4.49447,-0.95222 4.49447,-0.95222 l 12.5693,-12.455025 c -4.7611,-0.228532 -11.16002,-1.256929 -14.01667,-2.209148 -1.25693,-0.418977 -5.06581,-2.17106 -8.68424,-2.209149 z m -2.47577,3.580345 c 1.0284,0 1.90444,0.837952 1.90444,1.86635 0,1.028396 -0.83795,1.866349 -1.90444,1.866349 -1.0284,0 -1.90444,-0.837953 -1.90444,-1.866349 0,-1.028398 0.87604,-1.86635 1.90444,-1.86635 z m 0,8.303351 c 1.0284,0 1.90444,0.837953 1.90444,1.86635 0,1.028397 -0.83795,1.86635 -1.90444,1.86635 -1.0284,0 -1.90444,-0.837953 -1.90444,-1.86635 0,-1.028397 0.87604,-1.86635 1.90444,-1.86635 z"
           fill="#010101"
           id="XMLID_465_" />
        <polygon
           style="fill:#ffffff;fill-opacity:1"
           transform="matrix(0.38088771,0,0,0.38088771,220.74547,8.7807771)"
           points="197.7,142.7 175.7,164.5 153.6,164.5 153.6,120.8 175.7,120.8 "
           fill="#010101"
           id="XMLID_466_" />
        <path
           style="fill:#ffffff;fill-opacity:1;stroke-width:0.380888"
           d="m 278.22142,36.090425 h 29.36645 C 306.86418,24.016285 291.8572,23.635397 291.8572,23.635397 h -1.06648 z"
           fill="#010101"
           id="XMLID_467_" />
        <polygon
           style="fill:#ffffff;fill-opacity:1"
           transform="matrix(0.38088771,0,0,0.38088771,220.74547,8.7807771)"
           points="120.6,161.8 84.7,161.8 84.7,243.6 120.6,208.1 "
           fill="#010101"
           id="XMLID_468_" />
        <polygon
           style="fill:#ffffff;fill-opacity:1"
           transform="matrix(0.38088771,0,0,0.38088771,220.74547,8.7807771)"
           points="89.6,88.7 92.6,88.7 86.5,110.1 102.6,123.3 118.7,110.1 112.5,88.7 115.8,88.7 128.9,112.7 115.8,136.6 89.6,136.6 76.5,112.7 "
           fill="#010101"
           id="XMLID_469_" />
        <path
           style="fill:#ffffff;fill-opacity:1;stroke-width:0.380888"
           d="m 289.76232,39.213704 h 17.82555 c 0,15.578308 -8.37954,21.824866 -8.37954,21.824866 l -9.44601,-9.369837 z"
           fill="#010101"
           id="XMLID_470_" />
        <path
           style="fill:#ffffff;fill-opacity:1;stroke-width:0.380888"
           d="m 289.76232,87.015113 h 17.82555 c 0,-15.578309 -8.37954,-21.824867 -8.37954,-21.824867 l -9.44601,9.36984 z"
           fill="#010101"
           id="XMLID_471_" />
        <ellipse
           style="fill:#ffffff;fill-opacity:1;stroke-width:0.380888"
           ry="6.741713"
           rx="6.8178897"
           cy="69.989433"
           cx="259.82455"
           fill="#010101"
           id="XMLID_472_" />
        <path
           style="fill:#ffffff;fill-opacity:1;stroke-width:0.380888"
           d="m 269.80381,90.138394 h 37.78406 C 306.86418,102.21253 291.8572,102.59342 291.8572,102.59342 h -34.62269 z"
           fill="#c42032"
           id="XMLID_473_" />
      </g>
      <g
         display="none"
         id="XMLID_26_">
        <g
           display="inline"
           transform="translate(-2.275862,20.103448)"
           id="g82436_1_">
          <path
             d="m 210.2,673.7 5.9,3.5 h 3.5 v 2.3 h -3.5 l -5.9,3.5 4.7,-4.7 z"
             fill="#c42032"
             id="polygon7-7-7-2-0-56-6-3-9-4_1_" />
          <path
             d="m 231.8,667.5 c -1.9,0 -3.7,0.4 -5.1,1.5 -3.4,2.7 -10.6,2.2 -9.5,9.4 -1.3,6.2 5.9,6.8 9.5,9.4 3.5,2.3 8.1,0.8 11.5,-0.1 3.9,-1.1 5,-1.1 5,-1.1 l 14.2,-14 c -5.3,-0.2 -12.6,-1.4 -15.8,-2.5 -1.4,-0.6 -5.7,-2.5 -9.8,-2.6 z m -2.7,4.1 c 1.2,0 2.1,0.9 2.1,2.1 0,1.2 -1,2.1 -2.1,2.1 -1.1,0 -2.1,-0.9 -2.1,-2.1 0,-1.2 0.9,-2.1 2.1,-2.1 z m 0,9.3 c 1.2,0 2.1,0.9 2.1,2.1 0,1.2 -1,2.1 -2.1,2.1 -1.1,0 -2.1,-0.9 -2.1,-2.1 0,-1.2 0.9,-2.1 2.1,-2.1 z"
             id="polygon7-7-7-9-36-6-3-2-79_1_" />
          <path
             d="m 250.3,707.6 h 9.5 l 9.5,9.4 -9.5,9.4 h -9.5 z"
             id="polygon7-7-7-2-0-56-1-0-6-9_1_" />
          <path
             d="m 249.1,686.5 h 33.1 c -0.8,-13.6 -17.7,-14 -17.7,-14 h -1.2 z"
             id="polygon11-5-5-3-0-1-0-5-2-5_1_" />
          <path
             d="m 220.8,725.1 v 35.1 L 236.2,745 v -19.9 z"
             id="polygon11-3-2-2-1-2-7-5-3-3-1_1_" />
          <polygon
             points="222.9,693.8 224.2,693.8 221.5,703 228.4,708.6 235.3,703 232.7,693.8 234.1,693.8 239.7,704.1 234.1,714.3 222.9,714.3 217.2,704.1 "
             id="polygon55-3-7-7-1-8-3-1-1-8-5_1_" />
          <path
             d="m 262.1,690 h 20.1 v 0 c 0,17.5 -9.5,24.6 -9.5,24.6 l -10.6,-10.5 z"
             id="polygon9-5-5-3-7-6-9-6-4-5-2-8_1_" />
          <path
             d="m 262.1,743.9 h 20.1 v 0 c 0,-17.5 -9.5,-24.6 -9.5,-24.6 l -10.6,10.5 z"
             id="polygon9-5-5-3-7-6-9-6-2-1-0-5-8_1_" />
          <ellipse
             ry="7.5999999"
             rx="7.6999998"
             cy="724.70001"
             cx="228.5"
             id="path4785-7-5-2-6_1_" />
          <path
             d="m 239.7,747.4 h 42.5 c -0.8,13.6 -17.7,14 -17.7,14 h -39 z"
             fill="#c42032"
             id="polygon11-5-5-3-0-1-0-5-2-0-5_1_" />
        </g>
      </g>
      <g
         transform="matrix(0.53567892,0,0,0.53567892,27.812833,12.722398)"
         id="XMLID_1_" />
      <g
         transform="matrix(0.53567892,0,0,0.53567892,27.812833,12.722398)"
         id="XMLID_394_" />
      <g
         transform="matrix(0.53567892,0,0,0.53567892,27.812833,12.722398)"
         id="XMLID_398_" />
      <g
         transform="matrix(0.53567892,0,0,0.53567892,27.812833,12.722398)"
         id="XMLID_578_" />
      <g
         transform="matrix(0.53567892,0,0,0.53567892,27.812833,12.722398)"
         id="XMLID_579_" />
      <g
         transform="matrix(0.53567892,0,0,0.53567892,27.812833,12.722398)"
         id="XMLID_580_" />
    </g>
  </g>
</svg>
